<svg width="11" height="11" viewBox="0 0 11 11" fill="none" xmlns="http://www.w3.org/2000/svg">
<g clip-path="url(#clip0)">
<path d="M0.615385 6.35189C0.538462 6.27497 0.5 6.15959 0.5 6.08266C0.5 6.00574 0.538462 5.89035 0.615385 5.81343L1.15385 5.27497C1.30769 5.12112 1.53846 5.12112 1.69231 5.27497L1.73077 5.31343L3.84615 7.58266C3.92308 7.65959 4.03846 7.65959 4.11538 7.58266L9.26923 2.23651H9.30769C9.46154 2.08266 9.69231 2.08266 9.84615 2.23651L10.3846 2.77497C10.5385 2.92882 10.5385 3.15959 10.3846 3.31343L4.23077 9.69805C4.15385 9.77497 4.07692 9.81343 3.96154 9.81343C3.84615 9.81343 3.76923 9.77497 3.69231 9.69805L0.692308 6.46728L0.615385 6.35189Z" fill="#256AB2"/>
</g>
<defs>
<clipPath id="clip0">
<rect width="10" height="10" fill="white" transform="translate(0.5 0.967285)"/>
</clipPath>
</defs>
</svg>
