<svg width="16" height="15" viewBox="0 0 16 15" fill="none" xmlns="http://www.w3.org/2000/svg">
<g clip-path="url(#clip0)">
<rect width="15" height="15" transform="translate(0.500244)" fill="white"/>
<path fill-rule="evenodd" clip-rule="evenodd" d="M9.78323 7.49955L15.1313 2.15149C15.6236 1.65919 15.6236 0.861028 15.1313 0.368804C14.639 -0.123492 13.8409 -0.123492 13.3486 0.368804L8.00047 5.71693L2.65234 0.368733C2.16005 -0.123562 1.36195 -0.123562 0.869657 0.368733C0.377432 0.861028 0.377432 1.65919 0.869657 2.15142L6.21779 7.49948L0.869657 12.8476C0.377432 13.3399 0.377432 14.1381 0.869657 14.6303C1.36195 15.1226 2.16005 15.1226 2.65234 14.6303L8.00047 9.28216L13.3486 14.6303C13.8408 15.1226 14.639 15.1226 15.1313 14.6303C15.6236 14.138 15.6236 13.3399 15.1313 12.8476L9.78323 7.49955Z" fill="#757575"/>
</g>
<defs>
<clipPath id="clip0">
<rect width="15" height="15" fill="white" transform="translate(0.500244)"/>
</clipPath>
</defs>
</svg>
