<svg width="45" height="46" viewBox="0 0 45 46" fill="none" xmlns="http://www.w3.org/2000/svg">
<g clip-path="url(#clip0)">
<path d="M43.4601 12.6033L31.9957 0.690669C31.8325 0.521216 31.6074 0.425415 31.3722 0.425415H14.2853C12.3731 0.425415 10.8174 1.98055 10.8174 3.892V16.0024H3.89271C2.46203 16.0024 1.2981 17.1659 1.2981 18.5963V31.5816C1.2981 33.0118 2.46203 34.1754 3.89271 34.1754H10.8174V41.9649C10.8174 43.873 12.3731 45.4254 14.2853 45.4254H40.234C42.1462 45.4254 43.702 43.8739 43.702 41.9668V13.2034C43.702 12.9796 43.6152 12.7646 43.4601 12.6033ZM31.5866 2.76164L40.9978 12.5408H31.5866V2.76164ZM3.89271 32.4447C3.41635 32.4447 3.02893 32.0575 3.02893 31.5816V18.5963C3.02893 18.1203 3.41644 17.7331 3.89271 17.7331H27.2612C27.7376 17.7331 28.125 18.1203 28.125 18.5963V31.5816C28.125 32.0575 27.7375 32.4447 27.2612 32.4447H3.89271ZM41.9711 41.9668C41.9711 42.9196 41.1918 43.6947 40.2339 43.6947H14.2853C13.3274 43.6947 12.5481 42.9188 12.5481 41.965V34.1754H27.2612C28.6919 34.1754 29.8559 33.0118 29.8559 31.5816V18.5963C29.8559 17.1659 28.6919 16.0024 27.2612 16.0024H12.5481V3.892C12.5481 2.93478 13.3274 2.15616 14.2853 2.15616H29.8558V13.4062C29.8558 13.8841 30.2433 14.2715 30.7212 14.2715H41.9711V41.9668Z" fill="#3F3F3F"/>
<path d="M11.6438 22.3887C11.3565 22.0152 10.9998 21.7726 10.5739 21.6611C10.2967 21.5867 9.70179 21.5496 8.78905 21.5496H6.38049V28.9831H7.8814V26.179H8.86006C9.53954 26.179 10.0584 26.1435 10.4168 26.0725C10.6804 26.015 10.9399 25.8976 11.1951 25.7201C11.4504 25.5426 11.6608 25.2984 11.8265 24.9874C11.9921 24.6764 12.0749 24.2927 12.0749 23.8364C12.0748 23.2448 11.9311 22.7623 11.6438 22.3887ZM10.3584 24.4347C10.2452 24.6004 10.0889 24.7221 9.88935 24.7998C9.68983 24.8776 9.29442 24.9165 8.70282 24.9165H7.8814V22.8071H8.6065C9.14737 22.8071 9.50737 22.824 9.6865 22.8578C9.92986 22.9018 10.131 23.0116 10.2899 23.1874C10.4488 23.3632 10.5282 23.5863 10.5282 23.8567C10.5283 24.0764 10.4716 24.2691 10.3584 24.4347Z" fill="#3F3F3F"/>
<path d="M19.2903 23.5804C19.1281 23.1054 18.8914 22.704 18.5804 22.3761C18.2695 22.0482 17.8958 21.82 17.4598 21.6915C17.1353 21.5968 16.6637 21.5496 16.0451 21.5496H13.3019V28.9831H16.1262C16.6807 28.9831 17.1235 28.9307 17.4547 28.8258C17.8976 28.6839 18.2492 28.4861 18.5094 28.2326C18.8542 27.8979 19.1195 27.4602 19.3055 26.9193C19.4577 26.4764 19.5337 25.9491 19.5337 25.3373C19.5337 24.6409 19.4526 24.0553 19.2903 23.5804ZM17.8299 26.6329C17.7285 26.9659 17.5975 27.2051 17.437 27.3503C17.2764 27.4957 17.0744 27.5988 16.831 27.6596C16.6452 27.707 16.3425 27.7306 15.9234 27.7306H14.8028V22.8071H15.4772C16.089 22.8071 16.4998 22.8307 16.7093 22.8781C16.9899 22.9389 17.2215 23.0556 17.404 23.228C17.5865 23.4004 17.7285 23.6404 17.8299 23.948C17.9313 24.2556 17.9821 24.6967 17.9821 25.2715C17.9821 25.8461 17.9313 26.2999 17.8299 26.6329Z" fill="#3F3F3F"/>
<path d="M25.9125 22.8071V21.5496H20.8165V28.9831H22.3174V25.8241H25.4207V24.5666H22.3174V22.8071H25.9125Z" fill="#3F3F3F"/>
</g>
<defs>
<clipPath id="clip0">
<rect width="45" height="45" fill="white" transform="translate(0 0.425415)"/>
</clipPath>
</defs>
</svg>
