<svg width="15" height="15" viewBox="0 0 15 15" fill="none" xmlns="http://www.w3.org/2000/svg">
<path d="M14.6504 13.4126L11.1992 9.9614C12.0547 8.91843 12.5703 7.58249 12.5703 6.12643C12.5703 2.78659 9.86035 0.0766296 6.52051 0.0766296C3.17773 0.0766296 0.470703 2.78659 0.470703 6.12643C0.470703 9.46628 3.17773 12.1762 6.52051 12.1762C7.97656 12.1762 9.30957 11.6635 10.3525 10.8081L13.8037 14.2563C14.0381 14.4907 14.416 14.4907 14.6504 14.2563C14.8848 14.0249 14.8848 13.644 14.6504 13.4126ZM6.52051 10.9721C3.8457 10.9721 1.67188 8.79831 1.67188 6.12643C1.67188 3.45456 3.8457 1.2778 6.52051 1.2778C9.19238 1.2778 11.3691 3.45456 11.3691 6.12643C11.3691 8.79831 9.19238 10.9721 6.52051 10.9721Z" fill="#757575"/>
</svg>
