<?xml version="1.0" encoding="UTF-8" standalone="no"?>
<svg width="105px" height="89px" viewBox="0 0 105 89" version="1.1" xmlns="http://www.w3.org/2000/svg" xmlns:xlink="http://www.w3.org/1999/xlink">
    <!-- Generator: Sketch 3.6.1 (26313) - http://www.bohemiancoding.com/sketch -->
    <title>Group</title>
    <desc>Created with Sketch.</desc>
    <defs></defs>
    <g id="Page-1" stroke="none" stroke-width="1" fill="none" fill-rule="evenodd">
        <g id="Desktop-HD" transform="translate(-663.000000, -3135.000000)" fill="#D8D8D8">
            <g id="Group" transform="translate(663.000000, 3135.000000)">
                <path d="M18.8841945,51.4348264 C19.9035884,51.2618793 20.9514313,51.171875 22.0204518,51.171875 C32.2377197,51.171875 40.5204518,59.4546071 40.5204518,69.671875 C40.5204518,79.8891429 32.2377197,88.171875 22.0204518,88.171875 C16.1827666,88.171875 10.9766035,85.4879379 7.58600696,81.2699462 C3.41038783,77.71226 0.02045183,69.464339 0.0204518299,61.3017578 C0.0204518298,48.8916016 -0.794001827,40.7304688 7.85638933,24.6796875 C16.5067805,8.62890625 34.8397878,0 34.8397878,0 L43.3378346,14.2148437 C43.3378346,14.2148437 31.590766,19.1484375 23.7870534,32.2109375 C19.4219845,39.5175511 18.6856069,46.6063088 18.8841945,51.4348264 Z" id="Combined-Shape"></path>
                <path d="M79.8841945,51.4348264 C80.9035884,51.2618793 81.9514313,51.171875 83.0204518,51.171875 C93.2377197,51.171875 101.520452,59.4546071 101.520452,69.671875 C101.520452,79.8891429 93.2377197,88.171875 83.0204518,88.171875 C77.1827666,88.171875 71.9766035,85.4879379 68.586007,81.2699462 C64.4103878,77.71226 61.0204518,69.464339 61.0204518,61.3017578 C61.0204518,48.8916016 60.2059982,40.7304688 68.8563893,24.6796875 C77.5067805,8.62890625 95.8397878,0 95.8397878,0 L104.337835,14.2148437 C104.337835,14.2148437 92.590766,19.1484375 84.7870534,32.2109375 C80.4219845,39.5175511 79.6856069,46.6063088 79.8841945,51.4348264 Z" id="Combined-Shape-Copy"></path>
            </g>
        </g>
    </g>
</svg>