<?xml version="1.0" encoding="UTF-8" standalone="no"?>
<svg width="40px" height="61px" viewBox="0 0 40 61" version="1.1" xmlns="http://www.w3.org/2000/svg" xmlns:xlink="http://www.w3.org/1999/xlink">
    <!-- Generator: Sketch 46.2 (44496) - http://www.bohemiancoding.com/sketch -->
    <title>Path Copy 2</title>
    <desc>Created with Sketch.</desc>
    <defs></defs>
    <g id="Menu" stroke="none" stroke-width="1" fill="none" fill-rule="evenodd">
        <g id="Menu-Experiencia" transform="translate(-416.000000, -240.000000)" fill="#009999">
            <g id="Group-2" transform="translate(119.000000, 240.000000)">
                <g id="Group-12">
                    <path d="M340.86313,11.0002253 C338.975722,11.0002253 337.295146,11.8189961 336.11453,13.1073096 L336.097407,13.094467 L317.163389,33.7518688 L298.225316,13.0942417 L298.207967,13.1070843 C297.031632,11.8187708 295.351056,11 293.463648,11 C289.895889,11 287,13.8956637 287,17.4636477 C287,19.1485041 287.659252,20.6652803 288.715048,21.8199859 L288.697699,21.8328285 L312.39744,47.6869689 C313.625596,49.0185416 315.349206,49.7812106 317.163164,49.7812106 C318.977122,49.7812106 320.700731,49.0185416 321.924606,47.6869689 L345.624348,21.8330538 L345.607224,21.8202112 C346.6673,20.6655056 347.326553,19.1487294 347.326553,17.4638731 C347.326553,13.895889 344.430889,11.0002253 340.86313,11.0002253 L340.86313,11.0002253 Z" id="Path-Copy-2" transform="translate(317.163276, 30.390605) rotate(-90.000000) translate(-317.163276, -30.390605) "></path>
                </g>
            </g>
        </g>
    </g>
</svg>