<?xml version="1.0" encoding="UTF-8" standalone="no"?>
<svg width="14px" height="9px" viewBox="0 0 14 9" version="1.1" xmlns="http://www.w3.org/2000/svg" xmlns:xlink="http://www.w3.org/1999/xlink">
    <!-- Generator: Sketch 46.2 (44496) - http://www.bohemiancoding.com/sketch -->
    <title>Path Copy</title>
    <desc>Created with Sketch.</desc>
    <defs></defs>
    <g id="Page-1" stroke="none" stroke-width="1" fill="none" fill-rule="evenodd">
        <path d="M12.1962957,5.10168644e-05 C11.7689274,5.10168644e-05 11.3883926,0.185446302 11.1210642,0.477160732 L11.1171869,0.474252771 L6.82993373,5.15173398 L2.54176222,0.474201754 L2.53783392,0.477109715 C2.27147487,0.185395285 1.89094008,0 1.4635718,0 C0.655719758,0 0,0.655668741 0,1.4635718 C0,1.84507592 0.149275345,2.18852145 0.388340372,2.44998288 L0.384412073,2.45289084 L5.750774,8.30707602 C6.02886693,8.60858569 6.41914594,8.78127778 6.82988272,8.78127778 C7.24061949,8.78127778 7.6308985,8.60858569 7.90802211,8.30707602 L13.274384,2.45294186 L13.2705068,2.45003389 C13.5105411,2.18857246 13.6598164,1.84512693 13.6598164,1.46362282 C13.6598164,0.655719758 13.0041477,5.10168644e-05 12.1962957,5.10168644e-05 L12.1962957,5.10168644e-05 Z" id="Path-Copy" fill="#FFFFFF" transform="translate(6.829908, 4.390639) rotate(-180.000000) translate(-6.829908, -4.390639) "></path>
    </g>
</svg>