<?xml version="1.0" encoding="UTF-8" standalone="no"?>
<svg width="15px" height="10px" viewBox="0 0 15 10" version="1.1" xmlns="http://www.w3.org/2000/svg" xmlns:xlink="http://www.w3.org/1999/xlink">
    <!-- Generator: Sketch 46.2 (44496) - http://www.bohemiancoding.com/sketch -->
    <title>Path</title>
    <desc>Created with Sketch.</desc>
    <defs></defs>
    <g id="Page-1" stroke="none" stroke-width="1" fill="none" fill-rule="evenodd">
        <path d="M13.2813333,5.55555556e-05 C12.8159444,5.55555556e-05 12.4015556,0.201944444 12.1104444,0.519611111 L12.1062222,0.516444444 L7.43755556,5.61005556 L2.76788889,0.516388889 L2.76361111,0.519555556 C2.47355556,0.201888889 2.05916667,0 1.59377778,0 C0.714055556,0 0,0.714 0,1.59377778 C0,2.00922222 0.162555556,2.38322222 0.422888889,2.66794444 L0.418611111,2.67111111 L6.26238889,9.04611111 C6.56522222,9.37444444 6.99022222,9.5625 7.4375,9.5625 C7.88477778,9.5625 8.30977778,9.37444444 8.61155556,9.04611111 L14.4553333,2.67116667 L14.4511111,2.668 C14.7125,2.38327778 14.8750556,2.00927778 14.8750556,1.59383333 C14.8750556,0.714055556 14.1610556,5.55555556e-05 13.2813333,5.55555556e-05 L13.2813333,5.55555556e-05 Z" id="Path" fill="#888888"></path>
    </g>
</svg>