<?xml version="1.0" encoding="UTF-8" standalone="no"?>
<svg width="20px" height="32px" viewBox="0 0 20 32" version="1.1" xmlns="http://www.w3.org/2000/svg" xmlns:xlink="http://www.w3.org/1999/xlink">
    <!-- Generator: Sketch 46.2 (44496) - http://www.bohemiancoding.com/sketch -->
    <title>Path Copy 3</title>
    <desc>Created with Sketch.</desc>
    <defs></defs>
    <g id="Menu" stroke="none" stroke-width="1" fill="none" fill-rule="evenodd">
        <g id="Menu-Experiencia" transform="translate(-46.000000, -28.000000)" fill="#717171">
            <path d="M65.7734205,34.642382 L56.0000581,45.2890632 L46.233435,34.6356427 C45.6178359,33.9778649 44.7511402,33.5556137 43.7777778,33.5556137 C41.9378359,33.5556137 40.4443863,35.048947 40.4443863,36.8890051 C40.4443863,37.7579085 40.7843718,38.5401307 41.3288598,39.1356282 L53.5421932,52.4755846 C54.1755701,53.1622948 55.064459,53.5556137 55.9999419,53.5556137 C56.9354248,53.5556137 57.8243137,53.1622948 58.4554829,52.4755846 L70.6777633,39.1423675 C71.2156282,38.5402469 71.5556137,37.7580247 71.5556137,36.8891213 C71.5556137,35.0490632 70.0622803,33.5557298 68.2223384,33.5557298 C67.248976,33.5557298 66.3822803,33.9779811 65.7734205,34.642382 Z" id="Path-Copy-3" transform="translate(56.000000, 43.555614) rotate(-270.000000) translate(-56.000000, -43.555614) "></path>
        </g>
    </g>
</svg>