<?xml version="1.0" encoding="UTF-8" standalone="no"?>
<svg width="28px" height="26px" viewBox="0 0 28 26" version="1.1" xmlns="http://www.w3.org/2000/svg" xmlns:xlink="http://www.w3.org/1999/xlink">
    <!-- Generator: Sketch 46.2 (44496) - http://www.bohemiancoding.com/sketch -->
    <title>Group</title>
    <desc>Created with Sketch.</desc>
    <defs></defs>
    <g id="Home" stroke="none" stroke-width="1" fill="none" fill-rule="evenodd">
        <g transform="translate(-96.000000, -56.000000)" id="Group" fill="#FFFFFF">
            <g transform="translate(96.000000, 56.000000)">
                <path d="M26,26 L2,26 C0.896,26 0,25.104 0,24 C0,22.896 0.896,22 2,22 L26,22 C27.104,22 28,22.896 28,24 C28,25.104 27.104,26 26,26 L26,26 Z" id="Path"></path>
                <path d="M26,15 L2,15 C0.896,15 0,14.104 0,13 C0,11.896 0.896,11 2,11 L26,11 C27.104,11 28,11.896 28,13 C28,14.104 27.104,15 26,15 L26,15 Z" id="Path"></path>
                <path d="M26,4 L2,4 C0.896,4 0,3.104 0,2 C0,0.896 0.896,0 2,0 L26,0 C27.104,0 28,0.896 28,2 C28,3.104 27.104,4 26,4 L26,4 Z" id="Path"></path>
            </g>
        </g>
    </g>
</svg>