<?xml version="1.0" encoding="utf-8"?>
<!-- Generator: Adobe Illustrator 16.0.0, SVG Export Plug-In . SVG Version: 6.00 Build 0)  -->
<!DOCTYPE svg PUBLIC "-//W3C//DTD SVG 1.1//EN" "http://www.w3.org/Graphics/SVG/1.1/DTD/svg11.dtd">
<svg version="1.1" id="Layer_1" xmlns="http://www.w3.org/2000/svg" xmlns:xlink="http://www.w3.org/1999/xlink" x="0px" y="0px"
	 width="28.802px" height="25.607px" viewBox="1.595 3.197 28.802 25.607" enable-background="new 1.595 3.197 28.802 25.607"
	 xml:space="preserve">
<g transform="translate(192 48)">
	<path fill="#009999" d="M-162.671-23.382c-0.005-1.228-0.866-1.257-1.894-1.668l-4.802-1.925c-0.084-0.032-0.166-0.067-0.247-0.104
		v-0.002c-0.853-0.387-1.605-0.924-1.883-1.303l-0.011-0.012l-0.003-0.006c-0.016-0.023-0.033-0.05-0.047-0.072l-0.012-0.021
		l-0.002-0.005l-0.011-0.012v-0.003c-0.128-0.19-0.257-0.276-0.366-0.239l-0.007,0.003l-0.003,0.001l-0.001,0.001l-0.006,0.004
		h-0.004l-0.007,0.006c-0.129,0.067-0.104-0.006-0.156-0.147c-0.131-0.353-0.344-1.021-0.377-1.117
		c-0.051-0.185-0.184,0.289-0.153-0.222l0.056-0.92c0.088-0.096,0.16-0.174,0.209-0.228c0.312-0.357,0.334-1.303,0.489-1.533
		c0.157-0.229,0.472-0.279,0.784-1.354c0.314-1.072,0.696-2.605,0.293-2.631c-0.1-0.006-0.211,0.059-0.327,0.16
		c0.071-0.394,0.222-1.287,0.255-1.947c0.045-0.869-0.1-3.097-0.594-3.912c-0.309-0.51-0.932-1.016-1.553-1.41
		c-0.372-0.237-0.743-0.434-1.047-0.567c-0.905-0.401-3.757-0.217-4.724,0c-1.1,0.246-1.871,0.937-2.363,1.755
		c-0.492,0.817-0.711,3.268-0.668,4.137c0.021,0.39,0.254,1.047,0.313,1.449c0.034,0.209,0.065,0.211,0.091,0.36
		c-0.041-0.017-0.081-0.024-0.117-0.022c-0.404,0.025-0.022,1.558,0.291,2.631c0.313,1.072,0.627,1.123,0.783,1.354
		c0.157,0.23,0.18,1.176,0.493,1.533c0.05,0.059,0.125,0.139,0.219,0.238l0.061,0.752l0.105,0.418
		c-0.048-0.12-0.144-0.197-0.188-0.041c-0.135,0.41-0.271,0.82-0.405,1.23c-0.014-0.021-0.036-0.033-0.061-0.035
		c-0.131-0.115-0.308-0.017-0.468,0.252c-0.236,0.396-1.021,0.965-1.932,1.375l-0.013,0.049l-0.014,0.051l-0.005,0.021
		c-0.071,0.029-0.144,0.062-0.217,0.09l-4.8,1.924c-1.027,0.41-1.888,0.439-1.895,1.668l-0.795,4.182h28.802l-1.07-4.182
		L-162.671-23.382z"/>
</g>
</svg>
