<?xml version="1.0" encoding="UTF-8" standalone="no"?>
<svg width="15px" height="10px" viewBox="0 0 15 10" version="1.1" xmlns="http://www.w3.org/2000/svg" xmlns:xlink="http://www.w3.org/1999/xlink">
    <!-- Generator: Sketch 46.2 (44496) - http://www.bohemiancoding.com/sketch -->
    <title>Path</title>
    <desc>Created with Sketch.</desc>
    <defs></defs>
    <g id="Home" stroke="none" stroke-width="1" fill="none" fill-rule="evenodd">
        <g transform="translate(-622.000000, -748.000000)" id="Path" fill="#7D7D7D">
            <path d="M635.281333,748.000056 C634.815944,748.000056 634.401556,748.201944 634.110444,748.519611 L634.106222,748.516444 L629.437556,753.610056 L624.767889,748.516389 L624.763611,748.519556 C624.473556,748.201889 624.059167,748 623.593778,748 C622.714056,748 622,748.714 622,749.593778 C622,750.009222 622.162556,750.383222 622.422889,750.667944 L622.418611,750.671111 L628.262389,757.046111 C628.565222,757.374444 628.990222,757.5625 629.4375,757.5625 C629.884778,757.5625 630.309778,757.374444 630.611556,757.046111 L636.455333,750.671167 L636.451111,750.668 C636.7125,750.383278 636.875056,750.009278 636.875056,749.593833 C636.875056,748.714056 636.161056,748.000056 635.281333,748.000056 L635.281333,748.000056 Z"></path>
        </g>
    </g>
</svg>