<?xml version="1.0" encoding="UTF-8" standalone="no"?>
<svg width="14px" height="14px" viewBox="0 0 14 14" version="1.1" xmlns="http://www.w3.org/2000/svg" xmlns:xlink="http://www.w3.org/1999/xlink">
    <!-- Generator: Sketch 46.2 (44496) - http://www.bohemiancoding.com/sketch -->
    <title>Combined Shape</title>
    <desc>Created with Sketch.</desc>
    <defs></defs>
    <g id="Home" stroke="none" stroke-width="1" fill="none" fill-rule="evenodd">
        <g transform="translate(-643.000000, -913.000000)" id="Combined-Shape" fill="#979797">
            <path d="M650.775,920.775 L656.134,920.775 C656.625,920.775 657.021,920.379 657.021,919.888 C657.021,919.398 656.624,919 656.134,919 L650.775,919 L650.775,913.888 C650.775,913.398 650.378,913 649.888,913 C649.398,913 649,913.398 649,913.888 L649,919 L643.888,919 C643.397,919 643,919.398 643,919.888 C643,920.379 643.398,920.775 643.888,920.775 L649,920.775 L649,926.134 C649,926.624 649.398,927.021 649.888,927.021 C650.379,927.021 650.775,926.625 650.775,926.134 L650.775,920.775 Z"></path>
        </g>
    </g>
</svg>