<?xml version="1.0" encoding="UTF-8" standalone="no"?>
<svg width="14px" height="14px" viewBox="0 0 14 14" version="1.1" xmlns="http://www.w3.org/2000/svg" xmlns:xlink="http://www.w3.org/1999/xlink">
    <!-- Generator: Sketch 46.2 (44496) - http://www.bohemiancoding.com/sketch -->
    <title>Combined Shape</title>
    <desc>Created with Sketch.</desc>
    <defs></defs>
    <g id="Page-1" stroke="none" stroke-width="1" fill="none" fill-rule="evenodd">
        <path d="M7.898,7.898 L13.134,7.898 C13.625,7.898 14.021,7.502 14.021,7.011 C14.021,6.521 13.624,6.123 13.134,6.123 L7.898,6.123 L7.898,0.888 C7.898,0.398 7.501,0 7.011,0 C6.521,0 6.123,0.398 6.123,0.888 L6.123,6.123 L0.888,6.123 C0.397,6.123 0,6.521 0,7.011 C0,7.502 0.398,7.898 0.888,7.898 L6.123,7.898 L6.123,13.134 C6.123,13.624 6.521,14.021 7.011,14.021 C7.502,14.021 7.898,13.625 7.898,13.134 L7.898,7.898 Z" id="Combined-Shape" fill="#FFFFFF"></path>
    </g>
</svg>