<?xml version="1.0" encoding="utf-8"?>
<!-- Generator: Adobe Illustrator 16.0.0, SVG Export Plug-In . SVG Version: 6.00 Build 0)  -->
<!DOCTYPE svg PUBLIC "-//W3C//DTD SVG 1.1//EN" "http://www.w3.org/Graphics/SVG/1.1/DTD/svg11.dtd">
<svg version="1.1" id="Layer_1" xmlns="http://www.w3.org/2000/svg" xmlns:xlink="http://www.w3.org/1999/xlink" x="0px" y="0px"
	 width="1792px" height="1792px" viewBox="0 0 1792 1792" enable-background="new 0 0 1792 1792" xml:space="preserve">
<path fill="#FFFFFF" d="M1764,11c22,16,31,37.333,27,64l-256,1536c-3.333,19.333-14,34.333-32,45c-9.333,5.333-19.667,8-31,8
	c-7.333,0-15.333-1.667-24-5l-453-185l-242,295c-12,15.333-28.333,23-49,23c-8.667,0-16-1.333-22-4
	c-12.667-4.667-22.833-12.5-30.5-23.5S640,1741.333,640,1728v-349l864-1059L435,1245L40,1083c-24.667-9.333-38-27.667-40-55
	c-1.333-26.667,9.333-46.333,32-59L1696,9c10-6,20.667-9,32-9C1741.333,0,1753.333,3.667,1764,11z"/>
</svg>
