<?xml version="1.0" encoding="UTF-8" standalone="no"?>
<svg width="15px" height="9px" viewBox="0 0 15 9" version="1.1" xmlns="http://www.w3.org/2000/svg" xmlns:xlink="http://www.w3.org/1999/xlink">
    <!-- Generator: Sketch 46.2 (44496) - http://www.bohemiancoding.com/sketch -->
    <title>Path Copy</title>
    <desc>Created with Sketch.</desc>
    <defs></defs>
    <g id="Symbols" stroke="none" stroke-width="1" fill="none" fill-rule="evenodd">
        <g id="Flecha-blanca" transform="translate(-8.000000, -11.000000)" fill="#FFFFFF">
            <path d="M20.7570263,11.1060567 C20.3296581,11.1060567 19.9491233,11.291452 19.6817949,11.5831665 L19.6779176,11.5802585 L15.3906644,16.2577397 L11.1024929,11.5802075 L11.0985646,11.5831154 C10.8322055,11.291401 10.4516707,11.1060057 10.0243025,11.1060057 C9.21645042,11.1060057 8.56073066,11.7616745 8.56073066,12.5695775 C8.56073066,12.9510816 8.71000601,13.2945272 8.94907104,13.5559886 L8.94514274,13.5588966 L14.3115047,19.4130817 C14.5895976,19.7145914 14.9798766,19.8872835 15.3906134,19.8872835 C15.8013502,19.8872835 16.1916292,19.7145914 16.4687528,19.4130817 L21.8351147,13.5589476 L21.8312374,13.5560396 C22.0712718,13.2945782 22.2205471,12.9511327 22.2205471,12.5696285 C22.2205471,11.7617255 21.5648784,11.1060567 20.7570263,11.1060567 L20.7570263,11.1060567 Z" id="Path-Copy" transform="translate(15.390639, 15.496645) rotate(-180.000000) translate(-15.390639, -15.496645) "></path>
        </g>
    </g>
</svg>