<?xml version="1.0" encoding="UTF-8" standalone="no"?>
<svg width="40px" height="40px" viewBox="0 0 40 40" version="1.1" xmlns="http://www.w3.org/2000/svg" xmlns:xlink="http://www.w3.org/1999/xlink">
    <!-- Generator: Sketch 3.6.1 (26313) - http://www.bohemiancoding.com/sketch -->
    <title>Artboard 1</title>
    <desc>Created with Sketch.</desc>
    <defs></defs>
    <g id="Page-1" stroke="none" stroke-width="1" fill="none" fill-rule="evenodd">
        <g id="Artboard-1" fill="#FFFFFF">
            <g id="1458340828_development-copy" transform="translate(20.538462, 15.538462) rotate(-270.000000) translate(-20.538462, -15.538462) translate(15.000000, 5.076923)">
                <g id="Layer_1">
                    <g id="Group">
                        <g transform="translate(0.000000, 0.583166)" id="Shape">
                            <path d="M10.2451114,19.7807923 C10.0676795,19.7807923 9.88342325,19.7131322 9.74693717,19.577812 L0.220208642,10.4572321 C-0.0664121301,10.1865918 -0.0732364343,9.73326916 0.19973573,9.44909678 C0.472707894,9.16492441 0.929936269,9.1581584 1.21655704,9.42879876 L10.7432856,18.5561447 C11.0299063,18.8267851 11.0367306,19.2801077 10.7637585,19.56428 C10.6204481,19.7131322 10.4361919,19.7807923 10.2451114,19.7807923 L10.2451114,19.7807923 Z"></path>
                            <path d="M0.19973573,10.3335108 C-0.0732364343,10.0493384 -0.0664121301,9.59601583 0.220208642,9.32537548 L9.74693717,0.198029528 C10.0335579,-0.0726108268 10.4907863,-0.0658448179 10.7637585,0.218327554 C11.0367306,0.502499926 11.0299063,0.95582252 10.7432856,1.22646287 L1.22338134,10.3538088 C1.08007096,10.489129 0.902639052,10.5500231 0.718382841,10.5500231 C0.527302327,10.5500231 0.343046116,10.475597 0.19973573,10.3335108 Z"></path>
                        </g>
                    </g>
                </g>
            </g>
            <g id="1458340828_development-copy-2" transform="translate(20.500000, 23.384615) rotate(-270.000000) translate(-20.500000, -23.384615) translate(14.500000, 12.884615)">
                <g id="Layer_1" transform="translate(-0.000000, -0.000000)">
                    <g id="Group">
                        <g transform="translate(0.000000, 0.583166)" id="Shape">
                            <path d="M10.2451114,19.7807923 C10.0676795,19.7807923 9.88342325,19.7131322 9.74693717,19.577812 L0.220208642,10.4572321 C-0.0664121301,10.1865918 -0.0732364343,9.73326916 0.19973573,9.44909678 C0.472707894,9.16492441 0.929936269,9.1581584 1.21655704,9.42879876 L10.7432856,18.5561447 C11.0299063,18.8267851 11.0367306,19.2801077 10.7637585,19.56428 C10.6204481,19.7131322 10.4361919,19.7807923 10.2451114,19.7807923 L10.2451114,19.7807923 Z"></path>
                            <path d="M0.19973573,10.3335108 C-0.0732364343,10.0493384 -0.0664121301,9.59601583 0.220208642,9.32537548 L9.74693717,0.198029528 C10.0335579,-0.0726108268 10.4907863,-0.0658448179 10.7637585,0.218327554 C11.0367306,0.502499926 11.0299063,0.95582252 10.7432856,1.22646287 L1.22338134,10.3538088 C1.08007096,10.489129 0.902639052,10.5500231 0.718382841,10.5500231 C0.527302327,10.5500231 0.343046116,10.475597 0.19973573,10.3335108 Z"></path>
                        </g>
                    </g>
                </g>
            </g>
        </g>
    </g>
</svg>