<?xml version="1.0" encoding="UTF-8" standalone="no"?>
<svg width="122px" height="122px" viewBox="0 0 122 122" version="1.1" xmlns="http://www.w3.org/2000/svg" xmlns:xlink="http://www.w3.org/1999/xlink">
    <!-- Generator: Sketch 3.6.1 (26313) - http://www.bohemiancoding.com/sketch -->
    <title>Group 5</title>
    <desc>Created with Sketch.</desc>
    <defs></defs>
    <g id="home" stroke="none" stroke-width="1" fill="none" fill-rule="evenodd">
        <g id="habilidades-HD" transform="translate(-660.000000, -540.000000)">
            <g id="Group-5" transform="translate(661.000000, 541.000000)">
                <circle id="Oval-2-Copy-3" stroke="#725600" stroke-width="2" cx="60" cy="60" r="60"></circle>
                <g id="1458340828_development-copy-3" transform="translate(31.000000, 39.000000)" fill="#725600">
                    <g id="Layer_1">
                        <g id="Group">
                            <g transform="translate(39.035019, 4.947644)" id="Shape">
                                <path d="M0.365953307,31.686911 C-0.0776264591,31.2251309 -0.066536965,30.4884817 0.39922179,30.0486911 L15.8801556,15.2167539 C16.3459144,14.7769634 17.0889105,14.7879581 17.5324903,15.2497382 C17.97607,15.7115183 17.9649805,16.4481675 17.4992218,16.8879581 L2.01828794,31.7198953 C1.78540856,31.9287958 1.49708171,32.0387435 1.20875486,32.0387435 C0.898249027,32.0387435 0.598832685,31.917801 0.365953307,31.686911 Z"></path>
                                <path d="M16.6896887,17.2068063 C16.4013619,17.2068063 16.1019455,17.0968586 15.8801556,16.8769634 L0.388132296,2.05602094 C-0.0776264591,1.61623037 -0.0887159533,0.879581152 0.354863813,0.417801047 C0.79844358,-0.0439790576 1.54143969,-0.054973822 2.00719844,0.384816754 L17.4881323,15.2167539 C17.9538911,15.6565445 17.9649805,16.3931937 17.5214008,16.8549738 C17.2996109,17.0968586 16.9891051,17.2068063 16.6896887,17.2068063 L16.6896887,17.2068063 Z"></path>
                            </g>
                            <g transform="translate(0.000000, 4.947644)" id="Shape">
                                <path d="M16.7562257,32.0387435 C16.4678988,32.0387435 16.1684825,31.9287958 15.9466926,31.7089005 L0.465758755,16.8879581 C-9.37305789e-14,16.4481675 -0.0110894942,15.7115183 0.432490272,15.2497382 C0.876070039,14.7879581 1.61906615,14.7769634 2.0848249,15.2167539 L17.5657588,30.0486911 C18.0315175,30.4884817 18.042607,31.2251309 17.5990272,31.686911 C17.3661479,31.9287958 17.0667315,32.0387435 16.7562257,32.0387435 L16.7562257,32.0387435 Z"></path>
                                <path d="M0.432490272,16.8549738 C-0.0110894942,16.3931937 -9.37305789e-14,15.6565445 0.465758755,15.2167539 L15.9466926,0.384816754 C16.4124514,-0.054973822 17.1554475,-0.0439790576 17.5990272,0.417801047 C18.042607,0.879581152 18.0315175,1.61623037 17.5657588,2.05602094 L2.0959144,16.8879581 C1.86303502,17.1078534 1.57470817,17.2068063 1.27529183,17.2068063 C0.964785992,17.2068063 0.66536965,17.0858639 0.432490272,16.8549738 Z"></path>
                            </g>
                            <path d="M22.6225681,41.8570681 C22.0015564,41.6811518 21.6356031,41.0434555 21.813035,40.4277487 L32.9357977,0.945549738 C33.1132296,0.329842932 33.7564202,-0.0329842932 34.3774319,0.142931937 C34.9984436,0.318848168 35.3643969,0.956544503 35.186965,1.57225131 L24.0642023,41.0544503 C23.9200389,41.5712042 23.4431907,41.9010471 22.9330739,41.9010471 C22.8332685,41.9010471 22.7223735,41.8900524 22.6225681,41.8570681 Z" id="Shape"></path>
                        </g>
                    </g>
                </g>
            </g>
        </g>
    </g>
</svg>