<?xml version="1.0" encoding="UTF-8" standalone="no"?>
<svg width="122px" height="122px" viewBox="0 0 122 122" version="1.1" xmlns="http://www.w3.org/2000/svg" xmlns:xlink="http://www.w3.org/1999/xlink">
    <!-- Generator: Sketch 3.6.1 (26313) - http://www.bohemiancoding.com/sketch -->
    <title>Group 6</title>
    <desc>Created with Sketch.</desc>
    <defs></defs>
    <g id="home" stroke="none" stroke-width="1" fill="none" fill-rule="evenodd">
        <g id="habilidades-HD" transform="translate(-1000.000000, -540.000000)">
            <g id="Group-6" transform="translate(1001.000000, 541.000000)">
                <circle id="Oval-2-Copy-2" stroke="#033763" stroke-width="2" cx="60" cy="60" r="60"></circle>
                <g id="1458340883_js" transform="translate(26.000000, 50.000000)" fill="#033763">
                    <g id="Layer_1">
                        <g id="Group">
                            <path d="M5.42265919,0.326191214 L9.53091321,0.326191214 L9.53091321,11.9136873 C9.53091321,17.1362326 7.04440774,18.9587597 3.07114088,18.9587597 C2.09817956,18.9587597 0.854902431,18.7955659 0.0439549812,18.5235762 L0.50345772,15.177907 C1.07106727,15.3682997 1.80083704,15.5042946 2.61163814,15.5042946 C4.34144471,15.5042946 5.42265919,14.7154264 5.42265919,11.8865866 L5.42265919,0.326191214 L5.42265919,0.326191214 Z" id="Shape"></path>
                            <path d="M17.6657069,15.5585943 C19.5577225,15.5585943 20.5577593,14.7698243 20.5577593,13.5457726 C20.5577593,12.4305659 19.692856,11.7505917 17.5035467,10.9889225 C14.4763121,9.90086563 12.4762872,8.21443152 12.4762872,5.52163566 C12.4762872,2.39350904 15.0980238,0.027002584 19.3684868,0.027002584 C21.4497381,0.027002584 22.9362068,0.435134367 24.0174213,0.951865633 L23.098367,4.27033592 C22.3956727,3.91679845 21.0712179,3.3999199 19.314531,3.3999199 C17.5306222,3.3999199 16.6656701,4.24313695 16.6656701,5.168 C16.6656701,6.33765375 17.6657069,6.85438501 20.0443008,7.77929716 C23.260576,8.97614987 24.7471422,10.662584 24.7471422,13.273832 C24.7471422,16.3475116 22.4226994,18.9588088 17.4224666,18.9588088 C15.3412153,18.9588088 13.2869908,18.3875323 12.2600736,17.816354 L13.0979014,14.4161395 C14.1790183,14.9873669 15.9088737,15.5585943 17.6657069,15.5585943 Z" id="Shape"></path>
                        </g>
                    </g>
                </g>
                <g id="1458341151_Coding_Icons_-_LINE-16" transform="translate(67.000000, 49.000000)" fill="#033763">
                    <g id="Layer_1">
                        <g id="Group">
                            <path d="M0.5,10.9 C0.5,5 4.5,1.6 9.4,1.6 C12,1.6 14,2.7 15.2,3.9 L13,6.5 C12.1,5.7 11.1,5.1 9.5,5.1 C6.7,5.1 4.7,7.3 4.7,10.8 C4.7,14.5 6.4,16.6 9.8,16.6 C10.6,16.6 11.3,16.4 11.8,16.1 L11.8,13 L8.8,13 L8.8,9.7 L15.5,9.7 L15.5,17.9 C14.2,19 12,20 9.5,20 C4.4,20 0.5,16.9 0.5,10.9 L0.5,10.9 Z" id="Shape"></path>
                            <path d="M17.8,2.1 C17.8,0.9 18.8,0 20.2,0 C21.6,0 22.6,0.8 22.6,2.1 C22.6,3.3 21.6,4.2 20.2,4.2 C18.8,4.2 17.8,3.3 17.8,2.1 L17.8,2.1 Z M18.1,6.2 L22.2,6.2 L22.2,19.7 L18.1,19.7 L18.1,6.2 L18.1,6.2 Z" id="Shape"></path>
                            <path d="M25.6,14.8 L25.6,9.3 L23.7,9.3 L23.7,6.3 L25.8,6.1 L26.3,2.5 L29.7,2.5 L29.7,6.1 L33,6.1 L33,9.2 L29.7,9.2 L29.7,14.6 C29.7,16.1 30.4,16.8 31.5,16.8 C31.9,16.8 32.5,16.7 32.8,16.5 L33.4,19.4 C32.7,19.6 31.7,19.9 30.3,19.9 C27,20 25.6,17.9 25.6,14.8 L25.6,14.8 Z" id="Shape"></path>
                        </g>
                    </g>
                </g>
                <rect id="Rectangle-22" fill="#033763" x="56" y="59" width="6" height="4"></rect>
            </g>
        </g>
    </g>
</svg>