<?xml version="1.0" encoding="UTF-8" standalone="no"?>
<svg width="8px" height="15px" viewBox="0 0 8 15" version="1.1" xmlns="http://www.w3.org/2000/svg" xmlns:xlink="http://www.w3.org/1999/xlink">
    <!-- Generator: Sketch 3.6.1 (26313) - http://www.bohemiancoding.com/sketch -->
    <title>Layer_1</title>
    <desc>Created with Sketch.</desc>
    <defs></defs>
    <g id="home" stroke="none" stroke-width="1" fill="none" fill-rule="evenodd">
        <g id="Proyectos-Modal-HD-" transform="translate(-564.000000, -706.000000)" fill="#FFFFFF">
            <g id="Layer_1" transform="translate(567.970588, 713.500000) rotate(-180.000000) translate(-567.970588, -713.500000) translate(564.000000, 706.000000)">
                <g id="Group">
                    <g transform="translate(0.000000, 0.418078)" id="Shape">
                        <path d="M7.34484087,14.1810827 C7.21763785,14.1810827 7.0855424,14.1325764 6.98769392,14.0355638 L0.157870166,7.49691272 C-0.0476116374,7.30288747 -0.0525040613,6.97789517 0.143192895,6.77416865 C0.33888985,6.57044213 0.666682251,6.5655915 0.872164055,6.75961676 L7.70198781,13.3031185 C7.90746962,13.4971437 7.91236204,13.822136 7.71666508,14.0258625 C7.61392418,14.1325764 7.48182874,14.1810827 7.34484087,14.1810827 L7.34484087,14.1810827 Z"></path>
                        <path d="M0.143192895,7.40821546 C-0.0525040613,7.20448895 -0.0476116374,6.87949665 0.157870166,6.68547139 L6.98769392,0.141969698 C7.19317573,-0.052055556 7.52096813,-0.0472049246 7.71666508,0.156521592 C7.91236204,0.360248109 7.90746962,0.68524041 7.70198781,0.879265664 L0.877056479,7.42276736 C0.774315577,7.51977998 0.647112556,7.56343567 0.515017111,7.56343567 C0.378029241,7.56343567 0.245933796,7.51007872 0.143192895,7.40821546 Z"></path>
                    </g>
                </g>
            </g>
        </g>
    </g>
</svg>