<?xml version="1.0" encoding="UTF-8" standalone="no"?>
<svg width="224px" height="45px" viewBox="0 0 224 45" version="1.1" xmlns="http://www.w3.org/2000/svg" xmlns:xlink="http://www.w3.org/1999/xlink">
    <!-- Generator: Sketch 3.6.1 (26313) - http://www.bohemiancoding.com/sketch -->
    <title>Group 3</title>
    <desc>Created with Sketch.</desc>
    <defs></defs>
    <g id="home" stroke="none" stroke-width="1" fill="none" fill-rule="evenodd">
        <g id="habilidades-HD" transform="translate(-321.000000, -94.000000)">
            <g id="Group-3" transform="translate(321.000000, 94.000000)">
                <path d="M2.23486328,22 L0.145996094,22 L6.92919922,5.6484375 L9.00683594,5.6484375 L15.8012695,22 L13.65625,22 L11.8256836,17.5415039 L3.98681641,17.5415039 L2.23486328,22 Z M4.60449219,15.8793945 L11.1630859,15.8793945 L8.53515625,9.08496094 C8.47526012,8.94270762 8.41162143,8.776124 8.34423828,8.58520508 C8.27685513,8.39428615 8.21321645,8.21272873 8.15332031,8.04052734 C8.07845015,7.8383779 8.00732456,7.63248803 7.93994141,7.42285156 C7.86507124,7.66243609 7.7902022,7.89078667 7.71533203,8.10791016 C7.6554359,8.29508557 7.58992549,8.48038645 7.51879883,8.66381836 C7.44767217,8.84725027 7.39339211,8.99137317 7.35595703,9.09619141 L4.60449219,15.8793945 Z M17.4399653,22 L17.4399653,5.6484375 L19.7534419,5.6484375 L28.142602,18.1591797 L29.0185786,19.5854492 L29.0185786,16.96875 L29.0185786,5.6484375 L30.9389887,5.6484375 L30.9389887,22 L28.6030512,22 L20.1801997,9.50048828 L19.3716059,8.10791016 L19.3716059,10.2416992 L19.3716059,22 L17.4399653,22 Z M34.6103994,5.6484375 L38.147997,5.6484375 C39.1213092,5.6484375 40.0534288,5.70458928 40.9443837,5.81689453 C41.8353387,5.92919978 42.6645134,6.11262894 43.4319326,6.3671875 C44.1993518,6.62174606 44.8956339,6.95678503 45.5207998,7.37231445 C46.1459656,7.78784387 46.6794076,8.30069682 47.1211416,8.91088867 C47.5628755,9.52108052 47.9035297,10.2360799 48.1431142,11.0559082 C48.3826987,11.8757365 48.5024892,12.8134713 48.5024892,13.8691406 C48.5024892,15.1119854 48.2947276,16.2331493 47.8791982,17.232666 C47.4636688,18.2321827 46.860973,19.0856898 46.0710927,19.7932129 C45.2812125,20.500736 44.3154018,21.0454082 43.1736318,21.4272461 C42.0318618,21.8090839 40.738499,22 39.2935048,22 L34.6103994,22 L34.6103994,5.6484375 Z M36.54204,20.3378906 L39.4731923,20.3378906 C40.663628,20.3378906 41.6968208,20.1787939 42.5728017,19.8605957 C43.4487827,19.5423975 44.1750124,19.0987984 44.7515126,18.5297852 C45.3280129,17.9607719 45.7566382,17.2813353 46.0374013,16.4914551 C46.3181644,15.7015748 46.4585439,14.8387091 46.4585439,13.902832 C46.4585439,12.6749613 46.2863451,11.6398968 45.9419423,10.7976074 C45.5975396,9.95531805 45.0865584,9.27588149 44.4089833,8.75927734 C43.7314083,8.2426732 42.8891316,7.87207144 41.8821279,7.64746094 C40.8751241,7.42285044 39.7090388,7.31054688 38.3838369,7.31054688 L36.54204,7.31054688 L36.54204,20.3378906 Z M53.3081772,14.6777344 L53.3081772,22 L51.3765365,22 L51.3765365,5.6484375 L55.3745834,5.6484375 C55.8163174,5.6484375 56.3010945,5.6559244 56.8289291,5.67089844 C57.3567638,5.68587247 57.8864623,5.73453735 58.4180405,5.81689453 C58.9496186,5.89925171 59.4624716,6.02840081 59.9566147,6.2043457 C60.4507578,6.38029059 60.8906134,6.62548671 61.2761948,6.93994141 C61.6617761,7.2543961 61.9687392,7.65681721 62.1970932,8.1472168 C62.4254472,8.63761638 62.5396225,9.234697 62.5396225,9.93847656 C62.5396225,10.4550807 62.4572665,10.9304991 62.2925522,11.3647461 C62.1278378,11.7989931 61.8920003,12.1883121 61.5850326,12.5327148 C61.278065,12.8771176 60.9093349,13.1691069 60.4788315,13.4086914 C60.048328,13.6482759 59.5710379,13.8354485 59.0469467,13.9702148 L59.0581772,13.9702148 C59.5148852,14.1199552 59.8911021,14.3408189 60.1868393,14.6328125 C60.4825764,14.9248061 60.7502333,15.3010231 60.9898178,15.7614746 C61.2294023,16.2219261 61.4652398,16.7684701 61.6973373,17.401123 C61.9294348,18.0337759 62.2139372,18.7656208 62.550853,19.5966797 L63.5279037,22 L61.4165756,22 L59.6983139,17.2944336 C59.5111385,16.7853165 59.3258376,16.3623064 59.1424057,16.0253906 C58.9589738,15.6884749 58.7418536,15.420818 58.4910385,15.2224121 C58.2402234,15.0240062 57.9444907,14.8836267 57.6038315,14.8012695 C57.2631722,14.7189123 56.8420338,14.6777344 56.3404037,14.6777344 L53.3081772,14.6777344 Z M53.3081772,13.0268555 L56.2954819,13.0268555 C56.797112,13.0268555 57.2987346,12.981934 57.8003647,12.8920898 C58.3019948,12.8022456 58.7530808,12.6487641 59.1536362,12.4316406 C59.5541915,12.2145171 59.8780002,11.9187844 60.1250717,11.5444336 C60.3721433,11.1700828 60.4956772,10.6946643 60.4956772,10.1181641 C60.4956772,9.55663782 60.3927322,9.09432148 60.1868393,8.73120117 C59.9809463,8.36808087 59.6945722,8.08170678 59.3277084,7.87207031 C58.9608446,7.66243385 58.5303476,7.51643921 58.0362045,7.43408203 C57.5420614,7.35172485 57.0030043,7.31054688 56.419017,7.31054688 L53.3081772,7.31054688 L53.3081772,13.0268555 Z M76.1836894,22 L66.1099589,22 L66.1099589,5.6484375 L75.8467753,5.6484375 L75.8467753,7.31054688 L68.0415995,7.31054688 L68.0415995,12.7910156 L75.4200175,12.7910156 L75.4200175,14.453125 L68.0415995,14.453125 L68.0415995,20.3378906 L76.1836894,20.3378906 L76.1836894,22 Z M70.7256815,0.415039062 L73.1065409,0.415039062 L69.6475565,4.00878906 L68.1875956,4.00878906 L70.7256815,0.415039062 Z M79.1700414,18.956543 C79.4171129,19.2560236 79.7072305,19.5087067 80.0404027,19.7145996 C80.3735749,19.9204926 80.7254595,20.0889479 81.0960668,20.2199707 C81.4666741,20.3509935 81.8485062,20.4464515 82.2415746,20.5063477 C82.634643,20.5662438 83.0183468,20.5961914 83.3926976,20.5961914 C83.9841719,20.5961914 84.5269725,20.5381679 85.0211156,20.4221191 C85.5152587,20.3060704 85.9401405,20.1338716 86.2957738,19.9055176 C86.6514071,19.6771636 86.9284226,19.3964047 87.1268285,19.0632324 C87.3252344,18.7300602 87.4244359,18.3426129 87.4244359,17.9008789 C87.4244359,17.4067358 87.2934151,16.9855974 87.0313695,16.6374512 C86.7693239,16.2893049 86.4267981,15.9804701 86.0037816,15.7109375 C85.5807652,15.4414049 85.0959881,15.1999522 84.5494359,14.9865723 C84.0028837,14.7731923 83.4469811,14.5542003 82.8817113,14.3295898 C82.3164416,14.1049793 81.7605389,13.8635267 81.2139867,13.6052246 C80.6674345,13.3469225 80.1826574,13.0399595 79.759641,12.6843262 C79.3366246,12.3286929 78.9940987,11.9094262 78.7320531,11.4265137 C78.4700075,10.9436011 78.3389867,10.3689812 78.3389867,9.70263672 C78.3389867,8.98388313 78.507442,8.35311144 78.8443578,7.81030273 C79.1812735,7.26749403 79.6267443,6.81453632 80.1807836,6.45141602 C80.7348228,6.08829571 81.3637228,5.81315198 82.0675023,5.62597656 C82.7712819,5.43880115 83.4937681,5.34521484 84.2349828,5.34521484 C84.6617427,5.34521484 85.0997266,5.37141901 85.5489476,5.42382812 C85.9981686,5.47623724 86.4305374,5.56982354 86.8460668,5.70458984 C87.2615962,5.83935614 87.6471718,6.01717012 88.0028051,6.23803711 C88.3584383,6.4589041 88.6560428,6.73779128 88.8956273,7.07470703 L87.9634984,8.33251953 C87.7388879,8.08544798 87.4824614,7.87768639 87.1942113,7.70922852 C86.9059612,7.54077064 86.5989981,7.40600636 86.2733129,7.30493164 C85.9476276,7.20385692 85.6125887,7.1308596 85.2681859,7.0859375 C84.9237831,7.0410154 84.583129,7.01855469 84.2462133,7.01855469 C83.7895052,7.01855469 83.3328041,7.06534784 82.8760961,7.15893555 C82.4193881,7.25252325 82.0076083,7.40226134 81.6407445,7.6081543 C81.2738807,7.81404725 80.9744045,8.07983236 80.742307,8.40551758 C80.5102095,8.7312028 80.3941625,9.126137 80.3941625,9.59033203 C80.3941625,10.0695011 80.5251833,10.4831526 80.7872289,10.8312988 C81.0492745,11.1794451 81.3936721,11.4882799 81.820432,11.7578125 C82.247192,12.0273451 82.731969,12.2744129 83.2747777,12.4990234 C83.8175864,12.7236339 84.3734891,12.9519845 84.9425023,13.184082 C85.5115156,13.4161795 86.0674182,13.6669908 86.6102269,13.9365234 C87.1530356,14.206056 87.6378127,14.5242495 88.0645726,14.8911133 C88.4913326,15.2579771 88.8357302,15.6866024 89.0977758,16.177002 C89.3598213,16.6674015 89.4908422,17.2457649 89.4908422,17.9121094 C89.4908422,18.4436876 89.4047428,18.9209777 89.2325414,19.3439941 C89.06034,19.7670106 88.8245025,20.1394841 88.5250219,20.4614258 C88.2255412,20.7833675 87.8736567,21.0585112 87.4693578,21.2868652 C87.0650589,21.5152192 86.6289467,21.7005201 86.1610082,21.8427734 C85.6930696,21.9850268 85.2045491,22.0898434 84.695432,22.1572266 C84.1863149,22.2246097 83.6809488,22.2583008 83.1793187,22.2583008 C82.6327665,22.2583008 82.1124267,22.2096359 81.6182836,22.1123047 C81.1241405,22.0149735 80.6674393,21.8764657 80.2481664,21.6967773 C79.8288935,21.5170889 79.4526765,21.2999687 79.1195043,21.0454102 C78.786332,20.7908516 78.5111883,20.5063492 78.2940648,20.1918945 L79.1700414,18.956543 Z" id="ANDRÉS-" fill="#288BDF"></path>
                <path d="M10.0566406,31.4882812 C9.83984267,31.2773427 9.59814586,31.0957039 9.33154297,30.9433594 C9.06494007,30.7910149 8.78076323,30.6650396 8.47900391,30.5654297 C8.17724458,30.4658198 7.8608415,30.3925784 7.52978516,30.3457031 C7.19872881,30.2988279 6.86328295,30.2753906 6.5234375,30.2753906 C5.7089803,30.2753906 4.99267887,30.4277329 4.37451172,30.7324219 C3.75634457,31.0371109 3.24072472,31.4428686 2.82763672,31.949707 C2.41454872,32.4565455 2.10400495,33.0366178 1.89599609,33.6899414 C1.68798724,34.343265 1.58398438,35.0214809 1.58398438,35.7246094 C1.58398438,36.4921913 1.68652241,37.1938445 1.89160156,37.8295898 C2.09668071,38.4653352 2.40722448,39.0102516 2.82324219,39.4643555 C3.23925989,39.9184593 3.75927422,40.2714831 4.38330078,40.5234375 C5.00732734,40.7753919 5.74120672,40.9013672 6.58496094,40.9013672 C7.0830103,40.9013672 7.56640391,40.860352 8.03515625,40.7783203 C8.50390859,40.6962887 8.94921664,40.5703133 9.37109375,40.4003906 L9.37109375,36.65625 L6.19824219,36.65625 L6.19824219,35.3466797 L10.8828125,35.3466797 L10.8828125,41.2880859 C10.1738246,41.622072 9.44873417,41.8579095 8.70751953,41.9956055 C7.96630489,42.1333015 7.21777722,42.2021484 6.46191406,42.2021484 C5.40722129,42.2021484 4.47851964,42.0498062 3.67578125,41.7451172 C2.87304286,41.4404282 2.2006863,41.0097684 1.65869141,40.453125 C1.11669651,39.8964816 0.708009189,39.2270547 0.432617188,38.4448242 C0.157225186,37.6625937 0.01953125,36.7939501 0.01953125,35.8388672 C0.01953125,35.2119109 0.0854485596,34.6069365 0.217285156,34.0239258 C0.349121753,33.4409151 0.542479194,32.8945338 0.797363281,32.3847656 C1.05224737,31.8749975 1.36718562,31.4106466 1.7421875,30.9916992 C2.11718938,30.5727518 2.5463843,30.2124039 3.02978516,29.9106445 C3.51318601,29.6088852 4.04931346,29.3759774 4.63818359,29.2119141 C5.22705373,29.0478507 5.86718404,28.9658203 6.55859375,28.9658203 C6.98047086,28.9658203 7.39062301,28.9980466 7.7890625,29.0625 C8.18750199,29.1269534 8.56249824,29.225097 8.9140625,29.3569336 C9.26562676,29.4887702 9.58935399,29.6557607 9.88525391,29.8579102 C10.1811538,30.0600596 10.4404286,30.2958971 10.6630859,30.5654297 L10.0566406,31.4882812 Z M25.3675781,35.6191406 C25.3675781,36.5859423 25.2254897,37.4721639 24.9413086,38.277832 C24.6571275,39.0835001 24.2455105,39.7778291 23.7064453,40.3608398 C23.1673801,40.9438506 22.508207,41.3964828 21.7289063,41.71875 C20.9496055,42.0410172 20.0677784,42.2021484 19.0833985,42.2021484 C18.1048779,42.2021484 17.2274453,42.0468766 16.4510742,41.7363281 C15.6747032,41.4257797 15.0155301,40.9834013 14.4735352,40.4091797 C13.9315403,39.8349581 13.5169936,39.1406291 13.2298828,38.3261719 C12.942772,37.5117147 12.7992188,36.600591 12.7992188,35.5927734 C12.7992188,34.6318311 12.942772,33.7470744 13.2298828,32.9384766 C13.5169936,32.1298788 13.9330051,31.4311553 14.4779297,30.8422852 C15.0228543,30.253415 15.6878867,29.7934587 16.4730469,29.4624023 C17.2582071,29.131346 18.1517528,28.9658203 19.153711,28.9658203 C20.1087939,28.9658203 20.9701134,29.1240219 21.7376953,29.4404297 C22.5052773,29.7568375 23.1585911,30.2050752 23.6976563,30.7851562 C24.2367215,31.3652373 24.6498033,32.0639608 24.9369141,32.8813477 C25.2240249,33.6987346 25.3675781,34.6113231 25.3675781,35.6191406 L25.3675781,35.6191406 Z M14.4164063,35.6279297 C14.4164063,36.3662146 14.5145498,37.0561491 14.7108399,37.6977539 C14.9071299,38.3393587 15.2000957,38.8974586 15.5897461,39.3720703 C15.9793965,39.8466821 16.4642549,40.2202135 17.044336,40.4926758 C17.624417,40.7651381 18.2982384,40.9013672 19.0658203,40.9013672 C19.8392617,40.9013672 20.5174776,40.7651381 21.1004883,40.4926758 C21.683499,40.2202135 22.1683575,39.8452172 22.5550781,39.3676758 C22.9417988,38.8901343 23.231835,38.3247103 23.4251953,37.6713867 C23.6185557,37.0180631 23.7152344,36.3105507 23.7152344,35.5488281 C23.7152344,34.8046838 23.6200205,34.1103548 23.4295899,33.4658203 C23.2391592,32.8212858 22.9505879,32.2617211 22.5638672,31.7871094 C22.1771465,31.3124976 21.6952178,30.940431 21.1180664,30.6708984 C20.5409151,30.4013658 19.8656289,30.2666016 19.0921875,30.2666016 C18.3246056,30.2666016 17.6507842,30.4130845 17.0707031,30.7060547 C16.4906221,30.9990249 16.002834,31.3915991 15.6073242,31.8837891 C15.2118145,32.375979 14.9144541,32.9457975 14.7152344,33.5932617 C14.5160147,34.2407259 14.4164063,34.9189418 14.4164063,35.6279297 L14.4164063,35.6279297 Z M27.4597657,42 L27.4597657,29.203125 L29.2703125,29.203125 L35.8357422,38.9941406 L36.5212891,40.1103516 L36.5212891,38.0625 L36.5212891,29.203125 L38.0242188,29.203125 L38.0242188,42 L36.1960938,42 L29.6042969,32.2177734 L28.9714844,31.1279297 L28.9714844,32.7978516 L28.9714844,42 L27.4597657,42 Z M49.1955079,42 L39.6330079,42 L39.6330079,41.1914062 L47.2267579,30.5039062 L39.9142579,30.5039062 L39.9142579,29.203125 L49.2658204,29.203125 L49.2658204,29.9765625 L41.6369141,40.6992188 L49.1955079,40.6992188 L49.1955079,42 Z M50.9625001,42 L49.3277345,42 L54.6363282,29.203125 L56.2623048,29.203125 L61.5796876,42 L59.9009767,42 L58.4683595,38.5107422 L52.3335938,38.5107422 L50.9625001,42 Z M52.8169923,37.2099609 L57.9498048,37.2099609 L55.8931642,31.8925781 C55.8462889,31.7812494 55.7964847,31.6508797 55.7437501,31.5014648 C55.6910155,31.35205 55.6412113,31.2099616 55.594336,31.0751953 C55.535742,30.9169914 55.4800785,30.7558602 55.4273438,30.5917969 C55.3687498,30.7792978 55.3101566,30.958007 55.2515626,31.1279297 C55.2046874,31.2744148 55.1534183,31.4194329 55.097754,31.5629883 C55.0420897,31.7065437 54.9996096,31.8193355 54.9703126,31.9013672 L52.8169923,37.2099609 Z M55.5328126,25.1074219 L57.3960938,25.1074219 L54.6890626,27.9199219 L53.5464845,27.9199219 L55.5328126,25.1074219 Z M70.5185548,42 L62.8632814,42 L62.8632814,29.203125 L64.3750001,29.203125 L64.3750001,40.6992188 L70.5009767,40.6992188 L70.5185548,42 Z M79.9671876,42 L72.0833986,42 L72.0833986,29.203125 L79.7035158,29.203125 L79.7035158,30.5039062 L73.5951173,30.5039062 L73.5951173,34.7929688 L79.3695314,34.7929688 L79.3695314,36.09375 L73.5951173,36.09375 L73.5951173,40.6992188 L79.9671876,40.6992188 L79.9671876,42 Z M90.4089845,42 L80.8464845,42 L80.8464845,41.1914062 L88.4402345,30.5039062 L81.1277345,30.5039062 L81.1277345,29.203125 L90.479297,29.203125 L90.479297,29.9765625 L82.8503908,40.6992188 L90.4089845,40.6992188 L90.4089845,42 Z" id="GONZÁLEZ" fill="#033763"></path>
                <rect id="Rectangle-33" fill="#033763" opacity="0.1" x="101" y="4" width="1" height="40"></rect>
                <path d="M113.243164,19 L111.731445,19 L111.731445,6.203125 L119.140625,6.203125 L119.140625,7.50390625 L113.243164,7.50390625 L113.243164,11.8369141 L118.841797,11.8369141 L118.841797,13.1376953 L113.243164,13.1376953 L113.243164,19 Z M122.339098,19 L120.888903,19 L120.888903,12.1533203 C120.888903,11.7841778 120.883044,11.4150409 120.871325,11.0458984 C120.859606,10.676756 120.847887,10.3222673 120.836169,9.98242188 L122.286364,9.98242188 L122.339098,11.3447266 C122.585193,10.8466772 122.919174,10.4599623 123.341051,10.1845703 C123.762928,9.90917831 124.231674,9.77148438 124.747301,9.77148438 C125.087147,9.77148438 125.40355,9.80664027 125.69652,9.87695312 L125.714098,11.2392578 C125.591051,11.1748044 125.441638,11.1235353 125.265856,11.0854492 C125.090074,11.0473631 124.902576,11.0283203 124.703356,11.0283203 C124.351792,11.0283203 124.029529,11.0971673 123.736559,11.2348633 C123.443589,11.3725593 123.194568,11.5703112 122.989489,11.828125 C122.78441,12.0859388 122.624743,12.3994122 122.510485,12.7685547 C122.396227,13.1376972 122.339098,13.550779 122.339098,14.0078125 L122.339098,19 Z M130.538548,9.76269531 C131.294411,9.76269531 131.957979,9.88574096 132.529271,10.1318359 C133.100563,10.3779309 133.576632,10.7148416 133.957493,11.1425781 C134.338355,11.5703146 134.625461,12.0712862 134.818821,12.6455078 C135.012182,13.2197294 135.10886,13.8349577 135.10886,14.4912109 C135.10886,15.1240266 135.007787,15.7260714 134.805638,16.2973633 C134.603488,16.8686552 134.307593,17.3696268 133.917943,17.800293 C133.528292,18.2309592 133.046363,18.5722644 132.472142,18.8242188 C131.89792,19.0761731 131.241677,19.2021484 130.503392,19.2021484 C129.753388,19.2021484 129.091285,19.0791028 128.517064,18.8330078 C127.942842,18.5869128 127.460913,18.2529318 127.071263,17.8310547 C126.681612,17.4091776 126.385717,16.9126005 126.183568,16.3413086 C125.981418,15.7700167 125.880345,15.1591829 125.880345,14.5087891 C125.880345,13.8583952 125.982883,13.2446318 126.187962,12.6674805 C126.393041,12.0903291 126.693331,11.5864279 127.088841,11.1557617 C127.484351,10.7250955 127.970674,10.3852552 128.547825,10.1362305 C129.124977,9.88720579 129.788544,9.76269531 130.538548,9.76269531 L130.538548,9.76269531 Z M133.579564,14.5087891 C133.579564,14.0283179 133.518041,13.5712912 133.394993,13.1376953 C133.271946,12.7040994 133.084448,12.3247087 132.832493,11.9995117 C132.580539,11.6743148 132.261206,11.4165049 131.874485,11.2260742 C131.487765,11.0356436 131.030738,10.9404297 130.503392,10.9404297 C129.993624,10.9404297 129.545386,11.0385732 129.158665,11.2348633 C128.771944,11.4311533 128.448217,11.6948226 128.187474,12.0258789 C127.92673,12.3569352 127.730443,12.7392556 127.598607,13.1728516 C127.46677,13.6064475 127.400853,14.0576148 127.400853,14.5263672 C127.400853,14.9951195 127.46677,15.4404276 127.598607,15.8623047 C127.730443,16.2841818 127.92673,16.6577132 128.187474,16.9829102 C128.448217,17.3081071 128.774874,17.565917 129.167454,17.7563477 C129.560034,17.9467783 130.017061,18.0419922 130.538548,18.0419922 C131.054176,18.0419922 131.502413,17.9453135 131.883275,17.7519531 C132.264136,17.5585928 132.580539,17.299318 132.832493,16.9741211 C133.084448,16.6489242 133.271946,16.2739279 133.394993,15.8491211 C133.518041,15.4243143 133.579564,14.9775414 133.579564,14.5087891 L133.579564,14.5087891 Z M138.324912,19 L136.874717,19 L136.874717,12.1533203 C136.874717,11.8837877 136.871787,11.6186536 136.865927,11.3579102 C136.860068,11.0971667 136.854209,10.8642588 136.848349,10.6591797 C136.836631,10.4248035 136.827842,10.1992198 136.821982,9.98242188 L138.289756,9.98242188 L138.324912,11.2304688 C138.676476,10.7324194 139.099812,10.3632825 139.594931,10.1230469 C140.090051,9.8828113 140.674518,9.76269531 141.348349,9.76269531 C142.004603,9.76269531 142.546589,9.87109267 142.974326,10.0878906 C143.402062,10.3046886 143.740438,10.6079082 143.989463,10.9975586 C144.238487,11.387209 144.411337,11.8515598 144.508017,12.390625 C144.604697,12.9296902 144.653037,13.5214812 144.653037,14.1660156 L144.653037,19 L143.202842,19 L143.202842,14.3330078 C143.202842,13.8232396 143.180869,13.3588888 143.136924,12.9399414 C143.092978,12.520994 142.999229,12.1635757 142.855674,11.8676758 C142.712118,11.5717759 142.499718,11.3432625 142.218467,11.1821289 C141.937215,11.0209953 141.559289,10.9404297 141.084677,10.9404297 C140.645222,10.9404297 140.255578,11.0253898 139.915732,11.1953125 C139.575887,11.3652352 139.28878,11.5703113 139.054404,11.8105469 C138.820028,12.0507825 138.639854,12.3041979 138.513877,12.5708008 C138.387899,12.8374037 138.324912,13.0703115 138.324912,13.2695312 L138.324912,19 Z M147.658151,10.9228516 L145.873971,10.9228516 L145.873971,9.98242188 L147.658151,9.98242188 L147.702096,7.59179688 L149.108346,7.17871094 L149.108346,9.98242188 L151.358346,9.98242188 L151.358346,10.9228516 L149.108346,10.9228516 L149.108346,16.3105469 C149.108346,16.5097666 149.114205,16.7133779 149.125924,16.9213867 C149.137643,17.1293956 149.177193,17.3198234 149.244576,17.4926758 C149.31196,17.6655282 149.415962,17.8061518 149.556588,17.9145508 C149.697214,18.0229498 149.896431,18.0771484 150.154244,18.0771484 C150.341745,18.0771484 150.538032,18.0522463 150.743112,18.0024414 C150.948191,17.9526365 151.173774,17.8837895 151.419869,17.7958984 L151.41108,18.8769531 C151.206001,18.9941412 150.983347,19.0776365 150.743112,19.1274414 C150.502876,19.1772463 150.230418,19.2021484 149.925729,19.2021484 C149.433539,19.2021484 149.0395,19.1186532 148.7436,18.9516602 C148.4477,18.7846671 148.219187,18.5605483 148.058053,18.2792969 C147.896919,17.9980455 147.789987,17.6699237 147.737252,17.2949219 C147.684518,16.91992 147.658151,16.5244161 147.658151,16.1083984 L147.658151,10.9228516 Z M159.179866,13.6474609 L159.171077,13.5244141 C159.14178,13.1435528 159.067074,12.7949235 158.946956,12.4785156 C158.826838,12.1621078 158.661312,11.8896496 158.450374,11.6611328 C158.239435,11.432616 157.98309,11.2553717 157.681331,11.1293945 C157.379572,11.0034173 157.038266,10.9404297 156.657405,10.9404297 C156.247247,10.9404297 155.87811,11.0122063 155.549983,11.1557617 C155.221857,11.2993171 154.939145,11.4941394 154.701839,11.7402344 C154.464533,11.9863294 154.27264,12.2734359 154.126155,12.6015625 C153.97967,12.9296891 153.880062,13.2783185 153.827327,13.6474609 L159.179866,13.6474609 Z M160.348811,17.9892578 C159.862481,18.4111349 159.323424,18.718749 158.731624,18.9121094 C158.139824,19.1054697 157.468932,19.2021484 156.718929,19.2021484 C156.009941,19.2021484 155.377134,19.0864269 154.820491,18.8549805 C154.263848,18.623534 153.793638,18.3012716 153.409847,17.8881836 C153.026056,17.4750956 152.73309,16.9814482 152.53094,16.4072266 C152.328791,15.8330049 152.227718,15.2031284 152.227718,14.5175781 C152.227718,13.8671842 152.327326,13.2548857 152.526546,12.6806641 C152.725766,12.1064424 153.015802,11.6025412 153.396663,11.1689453 C153.777524,10.7353494 154.241875,10.3925794 154.789729,10.140625 C155.337584,9.88867062 155.963066,9.76269531 156.666194,9.76269531 C157.357604,9.76269531 157.958184,9.87548715 158.467952,10.1010742 C158.97772,10.3266613 159.396661,10.6372051 159.724788,11.0327148 C160.052915,11.4282246 160.297541,11.8984348 160.458675,12.4433594 C160.619808,12.988284 160.700374,13.5800749 160.700374,14.21875 C160.700374,14.2832034 160.698909,14.3579097 160.695979,14.4428711 C160.69305,14.5278325 160.688655,14.6054684 160.682796,14.6757812 L153.765804,14.6757812 L153.792171,15.0712891 C153.827327,15.5107444 153.916682,15.9121076 154.060237,16.2753906 C154.203793,16.6386737 154.401545,16.9521471 154.653499,17.2158203 C154.905453,17.4794935 155.211603,17.6831048 155.571956,17.8266602 C155.932309,17.9702156 156.343926,18.0419922 156.806819,18.0419922 C157.427916,18.0419922 157.99627,17.9335948 158.511897,17.7167969 C159.027525,17.4999989 159.490411,17.1894551 159.900569,16.7851562 L160.348811,17.9892578 Z M163.881269,19 L162.431074,19 L162.431074,12.1533203 C162.431074,11.8837877 162.428144,11.6186536 162.422285,11.3579102 C162.416425,11.0971667 162.410566,10.8642588 162.404706,10.6591797 C162.392988,10.4248035 162.384199,10.1992198 162.378339,9.98242188 L163.846113,9.98242188 L163.881269,11.2304688 C164.232833,10.7324194 164.656169,10.3632825 165.151289,10.1230469 C165.646408,9.8828113 166.230875,9.76269531 166.904706,9.76269531 C167.56096,9.76269531 168.102947,9.87109267 168.530683,10.0878906 C168.95842,10.3046886 169.296795,10.6079082 169.54582,10.9975586 C169.794844,11.387209 169.967694,11.8515598 170.064374,12.390625 C170.161055,12.9296902 170.209394,13.5214812 170.209394,14.1660156 L170.209394,19 L168.759199,19 L168.759199,14.3330078 C168.759199,13.8232396 168.737226,13.3588888 168.693281,12.9399414 C168.649335,12.520994 168.555586,12.1635757 168.412031,11.8676758 C168.268475,11.5717759 168.056075,11.3432625 167.774824,11.1821289 C167.493572,11.0209953 167.115646,10.9404297 166.641035,10.9404297 C166.201579,10.9404297 165.811935,11.0253898 165.472089,11.1953125 C165.132244,11.3652352 164.845137,11.5703113 164.610761,11.8105469 C164.376385,12.0507825 164.196211,12.3041979 164.070234,12.5708008 C163.944257,12.8374037 163.881269,13.0703115 163.881269,13.2695312 L163.881269,19 Z M179.120758,19 L179.085602,17.7080078 C178.70474,18.247073 178.263827,18.6308582 177.762848,18.859375 C177.261869,19.0878918 176.665683,19.2021484 175.974273,19.2021484 C175.277004,19.2021484 174.67203,19.0805676 174.159332,18.8374023 C173.646634,18.5942371 173.223299,18.2617209 172.889313,17.8398438 C172.555326,17.4179666 172.306306,16.9243192 172.142242,16.3588867 C171.978179,15.7934542 171.896148,15.1914094 171.896148,14.5527344 C171.896148,13.9199187 171.982573,13.3149443 172.155426,12.737793 C172.328278,12.1606416 172.589018,11.6508811 172.937652,11.2084961 C173.286287,10.7661111 173.719876,10.4145521 174.238434,10.1538086 C174.756991,9.8930651 175.359036,9.76269531 176.044586,9.76269531 C176.69498,9.76269531 177.279447,9.88574096 177.798004,10.1318359 C178.316561,10.3779309 178.745756,10.7324196 179.085602,11.1953125 L179.085602,5.88671875 L180.535797,5.88671875 L180.535797,16.75 C180.541656,17.1015643 180.54898,17.4794902 180.55777,17.8837891 C180.566559,18.288088 180.576812,18.6601546 180.588531,19 L179.120758,19 Z M176.202789,18.0419922 C176.677401,18.0419922 177.094877,17.949708 177.45523,17.7651367 C177.815584,17.5805655 178.117339,17.3198259 178.360504,16.9829102 C178.603669,16.6459944 178.786773,16.2402367 178.90982,15.765625 C179.032868,15.2910133 179.094391,14.7636748 179.094391,14.1835938 C179.094391,13.6972632 179.028473,13.2548848 178.896637,12.8564453 C178.7648,12.4580058 178.575837,12.1167006 178.329742,11.8325195 C178.083647,11.5483384 177.787752,11.3286141 177.442047,11.1733398 C177.096342,11.0180656 176.709627,10.9404297 176.281891,10.9404297 C175.783841,10.9404297 175.354646,11.0371084 174.994293,11.2304688 C174.63394,11.4238291 174.336579,11.6845687 174.102203,12.0126953 C173.867827,12.340822 173.694977,12.7231423 173.583648,13.159668 C173.47232,13.5961936 173.416656,14.0576148 173.416656,14.5439453 C173.416656,15.0009788 173.464996,15.4404276 173.561676,15.8623047 C173.658356,16.2841818 173.816558,16.6562484 174.036285,16.9785156 C174.256013,17.3007829 174.543119,17.5585928 174.897613,17.7519531 C175.252107,17.9453135 175.687161,18.0419922 176.202789,18.0419922 L176.202789,18.0419922 Z M195.897587,9.98242188 L195.343876,8.04003906 L194.737431,9.98242188 L191.872196,19 L190.000126,19 L186.282353,6.203125 L187.917118,6.203125 L190.641728,15.9326172 L190.975712,17.3388672 L191.362431,16.0644531 L194.596806,6.203125 L196.187626,6.203125 L199.3429,15.9677734 L199.747196,17.3300781 L200.063603,16.0820312 L202.797001,6.203125 L204.379032,6.203125 L200.661259,19 L198.797978,19 L195.897587,9.98242188 Z M211.541373,13.6474609 L211.532584,13.5244141 C211.503287,13.1435528 211.42858,12.7949235 211.308463,12.4785156 C211.188345,12.1621078 211.022819,11.8896496 210.811881,11.6611328 C210.600942,11.432616 210.344597,11.2553717 210.042838,11.1293945 C209.741078,11.0034173 209.399773,10.9404297 209.018912,10.9404297 C208.608754,10.9404297 208.239617,11.0122063 207.91149,11.1557617 C207.583363,11.2993171 207.300651,11.4941394 207.063345,11.7402344 C206.82604,11.9863294 206.634147,12.2734359 206.487662,12.6015625 C206.341177,12.9296891 206.241568,13.2783185 206.188834,13.6474609 L211.541373,13.6474609 Z M212.710318,17.9892578 C212.223988,18.4111349 211.68493,18.718749 211.093131,18.9121094 C210.501331,19.1054697 209.830439,19.2021484 209.080435,19.2021484 C208.371447,19.2021484 207.738641,19.0864269 207.181998,18.8549805 C206.625354,18.623534 206.155144,18.3012716 205.771353,17.8881836 C205.387562,17.4750956 205.094596,16.9814482 204.892447,16.4072266 C204.690298,15.8330049 204.589224,15.2031284 204.589224,14.5175781 C204.589224,13.8671842 204.688833,13.2548857 204.888052,12.6806641 C205.087272,12.1064424 205.377308,11.6025412 205.75817,11.1689453 C206.139031,10.7353494 206.603382,10.3925794 207.151236,10.140625 C207.69909,9.88867062 208.324572,9.76269531 209.027701,9.76269531 C209.719111,9.76269531 210.319691,9.87548715 210.829459,10.1010742 C211.339227,10.3266613 211.758168,10.6372051 212.086295,11.0327148 C212.414421,11.4282246 212.659048,11.8984348 212.820181,12.4433594 C212.981315,12.988284 213.061881,13.5800749 213.061881,14.21875 C213.061881,14.2832034 213.060416,14.3579097 213.057486,14.4428711 C213.054556,14.5278325 213.050162,14.6054684 213.044302,14.6757812 L206.12731,14.6757812 L206.153677,15.0712891 C206.188834,15.5107444 206.278188,15.9121076 206.421744,16.2753906 C206.565299,16.6386737 206.763051,16.9521471 207.015006,17.2158203 C207.26696,17.4794935 207.573109,17.6831048 207.933463,17.8266602 C208.293816,17.9702156 208.705433,18.0419922 209.168326,18.0419922 C209.789423,18.0419922 210.357776,17.9335948 210.873404,17.7167969 C211.389032,17.4999989 211.851918,17.1894551 212.262076,16.7851562 L212.710318,17.9892578 Z M216.11094,19 L214.634377,19 C214.640237,18.6015605 214.649026,18.2412125 214.660744,17.9189453 C214.666604,17.7783196 214.670998,17.6391608 214.673928,17.5014648 C214.676858,17.3637688 214.679787,17.2363287 214.682717,17.1191406 C214.685647,17.0019525 214.688576,16.8994145 214.691506,16.8115234 C214.694436,16.7236324 214.695901,16.6621096 214.695901,16.6269531 L214.695901,5.88671875 L216.146096,5.88671875 L216.146096,11.2568359 C216.515238,10.7470678 216.979589,10.3706067 217.539162,10.1274414 C218.098736,9.88427613 218.70664,9.76269531 219.362893,9.76269531 C220.060162,9.76269531 220.657812,9.88867062 221.155862,10.140625 C221.653911,10.3925794 222.061133,10.7294901 222.377541,11.1513672 C222.693949,11.5732443 222.926857,12.063962 223.076272,12.6235352 C223.225687,13.1831083 223.300393,13.7705047 223.300393,14.3857422 C223.300393,15.0419955 223.213968,15.6616182 223.041116,16.2446289 C222.868263,16.8276396 222.610453,17.338865 222.267678,17.7783203 C221.924903,18.2177756 221.495708,18.5649401 220.98008,18.8198242 C220.464453,19.0747083 219.866803,19.2021484 219.187112,19.2021484 C218.548437,19.2021484 217.974224,19.0834973 217.464455,18.8461914 C216.954687,18.6088855 216.515238,18.2587914 216.146096,17.7958984 L216.11094,19 Z M221.832619,14.1660156 C221.832619,13.7207009 221.768167,13.3017598 221.63926,12.9091797 C221.510353,12.5165996 221.32432,12.1752944 221.081155,11.8852539 C220.837989,11.5952134 220.543559,11.3652352 220.197854,11.1953125 C219.852149,11.0253898 219.462504,10.9404297 219.028908,10.9404297 C218.554297,10.9404297 218.13682,11.0356436 217.776467,11.2260742 C217.416114,11.4165049 217.114359,11.6743148 216.871194,11.9995117 C216.628028,12.3247087 216.44639,12.7011697 216.326272,13.1289062 C216.206154,13.5566428 216.146096,14.0048805 216.146096,14.4736328 C216.146096,14.983401 216.194435,15.4433573 216.291116,15.8535156 C216.387796,16.2636739 216.548927,16.6137681 216.774514,16.9038086 C217.000101,17.1938491 217.294532,17.417968 217.657815,17.5761719 C218.021098,17.7343758 218.469336,17.8134766 219.002541,17.8134766 C219.529888,17.8134766 219.975196,17.7094737 220.338479,17.5014648 C220.701762,17.293456 220.993263,17.0195329 221.212991,16.6796875 C221.432718,16.3398421 221.59092,15.9516623 221.6876,15.5151367 C221.78428,15.0786111 221.832619,14.6289086 221.832619,14.1660156 L221.832619,14.1660156 Z" id="Frontend-Web" fill="#033763"></path>
                <path d="M111.696289,28.203125 L114.464844,28.203125 C115.226566,28.203125 115.956051,28.2470699 116.65332,28.3349609 C117.350589,28.422852 117.999509,28.5664053 118.600098,28.765625 C119.200687,28.9648447 119.745603,29.2270492 120.234863,29.5522461 C120.724124,29.877443 121.1416,30.2788062 121.487305,30.7563477 C121.83301,31.2338891 122.099608,31.7934538 122.287109,32.4350586 C122.47461,33.0766634 122.568359,33.8105427 122.568359,34.6367188 C122.568359,35.6093799 122.405763,36.4868125 122.080566,37.269043 C121.755369,38.0512734 121.283694,38.7192355 120.665527,39.2729492 C120.04736,39.8266629 119.291508,40.2529282 118.397949,40.5517578 C117.50439,40.8505874 116.492193,41 115.361328,41 L111.696289,41 L111.696289,28.203125 Z M113.208008,39.6992188 L115.501953,39.6992188 C116.433598,39.6992188 117.242184,39.5747083 117.927734,39.3256836 C118.613285,39.0766589 119.181638,38.7294944 119.632812,38.2841797 C120.083987,37.838865 120.419432,37.307132 120.63916,36.6889648 C120.858888,36.0707977 120.96875,35.3955115 120.96875,34.6630859 C120.96875,33.7021436 120.833986,32.8920931 120.564453,32.2329102 C120.294921,31.5737272 119.895022,31.0419942 119.364746,30.6376953 C118.83447,30.2333964 118.175297,29.9433603 117.387207,29.7675781 C116.599117,29.591796 115.686529,29.5039062 114.649414,29.5039062 L113.208008,29.5039062 L113.208008,39.6992188 Z M130.950781,35.6474609 L130.941992,35.5244141 C130.912695,35.1435528 130.837989,34.7949235 130.717871,34.4785156 C130.597753,34.1621078 130.432228,33.8896496 130.221289,33.6611328 C130.01035,33.432616 129.754005,33.2553717 129.452246,33.1293945 C129.150487,33.0034173 128.809182,32.9404297 128.42832,32.9404297 C128.018162,32.9404297 127.649025,33.0122063 127.320898,33.1557617 C126.992772,33.2993171 126.71006,33.4941394 126.472754,33.7402344 C126.235448,33.9863294 126.043555,34.2734359 125.89707,34.6015625 C125.750585,34.9296891 125.650977,35.2783185 125.598242,35.6474609 L130.950781,35.6474609 Z M132.119727,39.9892578 C131.633396,40.4111349 131.094339,40.718749 130.502539,40.9121094 C129.910739,41.1054697 129.239847,41.2021484 128.489844,41.2021484 C127.780856,41.2021484 127.14805,41.0864269 126.591406,40.8549805 C126.034763,40.623534 125.564553,40.3012716 125.180762,39.8881836 C124.796971,39.4750956 124.504005,38.9814482 124.301855,38.4072266 C124.099706,37.8330049 123.998633,37.2031284 123.998633,36.5175781 C123.998633,35.8671842 124.098241,35.2548857 124.297461,34.6806641 C124.496681,34.1064424 124.786717,33.6025412 125.167578,33.1689453 C125.548439,32.7353494 126.01279,32.3925794 126.560645,32.140625 C127.108499,31.8886706 127.733981,31.7626953 128.437109,31.7626953 C129.128519,31.7626953 129.729099,31.8754872 130.238867,32.1010742 C130.748635,32.3266613 131.167576,32.6372051 131.495703,33.0327148 C131.82383,33.4282246 132.068456,33.8984348 132.22959,34.4433594 C132.390723,34.988284 132.471289,35.5800749 132.471289,36.21875 C132.471289,36.2832034 132.469824,36.3579097 132.466895,36.4428711 C132.463965,36.5278325 132.45957,36.6054684 132.453711,36.6757812 L125.536719,36.6757812 L125.563086,37.0712891 C125.598242,37.5107444 125.687597,37.9121076 125.831152,38.2753906 C125.974708,38.6386737 126.17246,38.9521471 126.424414,39.2158203 C126.676368,39.4794935 126.982518,39.6831048 127.342871,39.8266602 C127.703224,39.9702156 128.114841,40.0419922 128.577734,40.0419922 C129.198831,40.0419922 129.767185,39.9335948 130.282812,39.7167969 C130.79844,39.4999989 131.261326,39.1894551 131.671484,38.7851562 L132.119727,39.9892578 Z M139.64082,33.5556641 C139.324412,33.3388661 138.943557,33.1821294 138.498242,33.0854492 C138.052927,32.988769 137.590041,32.9404297 137.10957,32.9404297 C136.840038,32.9404297 136.591017,32.9697263 136.3625,33.0283203 C136.133983,33.0869144 135.936231,33.1704096 135.769238,33.2788086 C135.602245,33.3872076 135.470411,33.5190422 135.37373,33.6743164 C135.27705,33.8295906 135.228711,34.0039053 135.228711,34.1972656 C135.228711,34.4023448 135.278515,34.5781243 135.378125,34.7246094 C135.477735,34.8710945 135.612499,34.9985346 135.782422,35.1069336 C135.952345,35.2153326 136.151561,35.3120113 136.380078,35.3969727 C136.608595,35.481934 136.851756,35.5624996 137.10957,35.6386719 C137.343946,35.7089847 137.594432,35.7822262 137.861035,35.8583984 C138.127638,35.9345707 138.392772,36.0239253 138.656445,36.1264648 C138.920118,36.2290044 139.172069,36.3491204 139.412305,36.4868164 C139.65254,36.6245124 139.86494,36.7871084 140.049512,36.9746094 C140.234083,37.1621103 140.380566,37.3818347 140.488965,37.6337891 C140.597364,37.8857434 140.651562,38.1757796 140.651562,38.5039062 C140.651562,38.9609398 140.546095,39.3579085 140.335156,39.6948242 C140.124218,40.03174 139.8459,40.3115223 139.500195,40.5341797 C139.15449,40.7568371 138.758987,40.9238276 138.313672,41.0351562 C137.868357,41.1464849 137.41133,41.2021484 136.942578,41.2021484 C136.63203,41.2021484 136.324416,41.1845705 136.019727,41.1494141 C135.715037,41.1142576 135.423537,41.0556645 135.145215,40.9736328 C134.866893,40.8916012 134.609083,40.7861335 134.371777,40.6572266 C134.134471,40.5283197 133.93086,40.3671885 133.760937,40.1738281 L134.147656,38.9873047 C134.30586,39.1748056 134.490429,39.3359368 134.701367,39.4707031 C134.912306,39.6054694 135.139354,39.7153316 135.382519,39.800293 C135.625685,39.8852543 135.876171,39.9467772 136.133984,39.9848633 C136.391798,40.0229494 136.643749,40.0419922 136.889844,40.0419922 C137.21797,40.0419922 137.519725,40.0112308 137.795117,39.949707 C138.070509,39.8881833 138.309276,39.7973639 138.511426,39.6772461 C138.713575,39.5571283 138.871777,39.4077157 138.986035,39.2290039 C139.100293,39.0502921 139.157422,38.8437512 139.157422,38.609375 C139.157422,38.3398424 139.092969,38.1215829 138.964062,37.9545898 C138.835156,37.7875968 138.656446,37.6440436 138.42793,37.5239258 C138.199413,37.403808 137.926955,37.2983403 137.610547,37.2075195 C137.294139,37.1166988 136.951369,37.0126959 136.582227,36.8955078 C136.142771,36.7548821 135.745803,36.6069344 135.391309,36.4516602 C135.036815,36.2963859 134.736525,36.116212 134.49043,35.9111328 C134.244335,35.7060537 134.055372,35.4672865 133.923535,35.1948242 C133.791699,34.9223619 133.725781,34.5986347 133.725781,34.2236328 C133.725781,33.8076151 133.820995,33.4443375 134.011426,33.1337891 C134.201856,32.8232406 134.452342,32.5668955 134.762891,32.3647461 C135.073439,32.1625966 135.426463,32.0117192 135.821973,31.9121094 C136.217482,31.8124995 136.62031,31.7626953 137.030469,31.7626953 C137.633987,31.7626953 138.192087,31.8198236 138.704785,31.934082 C139.217483,32.0483404 139.652537,32.2460923 140.009961,32.5273438 L139.64082,33.5556641 Z M143.830859,28.1503906 L143.830859,29.5126953 L142.486133,29.5126953 L142.486133,28.1503906 L143.830859,28.1503906 Z M142.41582,31.9824219 L143.866016,31.9824219 L143.866016,41 L142.41582,41 L142.41582,31.9824219 Z M146.535547,42.6435547 C146.99844,42.9306655 147.484763,43.1416009 147.994531,43.2763672 C148.504299,43.4111335 149.005271,43.4785156 149.497461,43.4785156 C150.013088,43.4785156 150.47451,43.4213873 150.881738,43.3071289 C151.288967,43.1928705 151.633202,43.017091 151.914453,42.7797852 C152.195704,42.5424793 152.411034,42.2407245 152.560449,41.8745117 C152.709864,41.508299 152.78457,41.0732447 152.78457,40.5693359 L152.78457,39.453125 C152.433006,39.9687526 151.989163,40.3554675 151.453027,40.6132812 C150.916892,40.871095 150.329495,41 149.69082,41 C149.040426,41 148.460354,40.8916026 147.950586,40.6748047 C147.440818,40.4580067 147.010158,40.1533223 146.658594,39.7607422 C146.307029,39.3681621 146.037501,38.8964871 145.85,38.3457031 C145.662499,37.7949191 145.56875,37.1826206 145.56875,36.5087891 C145.56875,35.870114 145.65664,35.2622099 145.832422,34.6850586 C146.008204,34.1079073 146.271873,33.6040061 146.623437,33.1733398 C146.975002,32.7426736 147.415915,32.3999036 147.946191,32.1450195 C148.476467,31.8901354 149.09316,31.7626953 149.796289,31.7626953 C150.481839,31.7626953 151.063376,31.8872058 151.540918,32.1362305 C152.018459,32.3852552 152.433006,32.7470679 152.78457,33.2216797 C152.78457,33.1220698 152.7875,33.000489 152.793359,32.8569336 C152.799219,32.7133782 152.805078,32.5771491 152.810937,32.4482422 C152.816797,32.2958977 152.825586,32.1406258 152.837305,31.9824219 L154.2875,31.9824219 C154.275781,32.2636733 154.266992,32.5419908 154.261133,32.8173828 C154.249414,33.051759 154.24209,33.2949206 154.23916,33.546875 C154.23623,33.7988294 154.234766,34.0185537 154.234766,34.2060547 L154.234766,39.7080078 C154.234766,40.1064473 154.211328,40.5063456 154.164453,40.9077148 C154.117578,41.309084 154.032618,41.6943341 153.90957,42.0634766 C153.786523,42.432619 153.616603,42.7783187 153.399805,43.1005859 C153.183007,43.4228532 152.903224,43.7026355 152.560449,43.9399414 C152.217674,44.1772473 151.803127,44.3647454 151.316797,44.5024414 C150.830466,44.6401374 150.259183,44.7089844 149.60293,44.7089844 C149.016989,44.7089844 148.45303,44.6503912 147.911035,44.5332031 C147.36904,44.416015 146.854885,44.2343762 146.368555,43.9882812 L146.535547,42.6435547 Z M152.78457,36.1660156 C152.78457,35.7207009 152.720118,35.3017598 152.591211,34.9091797 C152.462304,34.5165996 152.276271,34.1752944 152.033105,33.8852539 C151.78994,33.5952134 151.495509,33.3652352 151.149805,33.1953125 C150.8041,33.0253898 150.414455,32.9404297 149.980859,32.9404297 C149.506248,32.9404297 149.088771,33.0356436 148.728418,33.2260742 C148.368065,33.4165049 148.06631,33.6743148 147.823144,33.9995117 C147.579979,34.3247087 147.39834,34.7011697 147.278223,35.1289062 C147.158105,35.5566428 147.098047,36.0048805 147.098047,36.4736328 C147.098047,36.983401 147.146386,37.4433573 147.243066,37.8535156 C147.339746,38.2636739 147.500878,38.6137681 147.726465,38.9038086 C147.952052,39.1938491 148.246482,39.417968 148.609766,39.5761719 C148.973049,39.7343758 149.421286,39.8134766 149.954492,39.8134766 C150.481838,39.8134766 150.927147,39.7094737 151.29043,39.5014648 C151.653713,39.293456 151.945214,39.0195329 152.164941,38.6796875 C152.384669,38.3398421 152.542871,37.9516623 152.639551,37.5151367 C152.736231,37.0786111 152.78457,36.6289086 152.78457,36.1660156 L152.78457,36.1660156 Z M158.00293,41 L156.552734,41 L156.552734,34.1533203 C156.552734,33.8837877 156.549805,33.6186536 156.543945,33.3579102 C156.538086,33.0971667 156.532226,32.8642588 156.526367,32.6591797 C156.514648,32.4248035 156.505859,32.1992198 156.5,31.9824219 L157.967773,31.9824219 L158.00293,33.2304688 C158.354494,32.7324194 158.777829,32.3632825 159.272949,32.1230469 C159.768069,31.8828113 160.352536,31.7626953 161.026367,31.7626953 C161.68262,31.7626953 162.224607,31.8710927 162.652344,32.0878906 C163.08008,32.3046886 163.418456,32.6079082 163.66748,32.9975586 C163.916505,33.387209 164.089355,33.8515598 164.186035,34.390625 C164.282715,34.9296902 164.331055,35.5214812 164.331055,36.1660156 L164.331055,41 L162.880859,41 L162.880859,36.3330078 C162.880859,35.8232396 162.858887,35.3588888 162.814941,34.9399414 C162.770996,34.520994 162.677247,34.1635757 162.533691,33.8676758 C162.390136,33.5717759 162.177736,33.3432625 161.896484,33.1821289 C161.615233,33.0209953 161.237307,32.9404297 160.762695,32.9404297 C160.32324,32.9404297 159.933595,33.0253898 159.59375,33.1953125 C159.253904,33.3652352 158.966798,33.5703113 158.732422,33.8105469 C158.498046,34.0507825 158.317872,34.3041979 158.191894,34.5708008 C158.065917,34.8374037 158.00293,35.0703115 158.00293,35.2695312 L158.00293,41 Z M173.135351,35.6474609 L173.126562,35.5244141 C173.097265,35.1435528 173.022559,34.7949235 172.902441,34.4785156 C172.782323,34.1621078 172.616798,33.8896496 172.405859,33.6611328 C172.194921,33.432616 171.938576,33.2553717 171.636816,33.1293945 C171.335057,33.0034173 170.993752,32.9404297 170.61289,32.9404297 C170.202732,32.9404297 169.833595,33.0122063 169.505469,33.1557617 C169.177342,33.2993171 168.89463,33.4941394 168.657324,33.7402344 C168.420018,33.9863294 168.228126,34.2734359 168.08164,34.6015625 C167.935155,34.9296891 167.835547,35.2783185 167.782812,35.6474609 L173.135351,35.6474609 Z M174.304297,39.9892578 C173.817966,40.4111349 173.278909,40.718749 172.687109,40.9121094 C172.095309,41.1054697 171.424418,41.2021484 170.674414,41.2021484 C169.965426,41.2021484 169.33262,41.0864269 168.775976,40.8549805 C168.219333,40.623534 167.749123,40.3012716 167.365332,39.8881836 C166.981541,39.4750956 166.688575,38.9814482 166.486426,38.4072266 C166.284276,37.8330049 166.183203,37.2031284 166.183203,36.5175781 C166.183203,35.8671842 166.282811,35.2548857 166.482031,34.6806641 C166.681251,34.1064424 166.971287,33.6025412 167.352148,33.1689453 C167.73301,32.7353494 168.19736,32.3925794 168.745215,32.140625 C169.293069,31.8886706 169.918551,31.7626953 170.62168,31.7626953 C171.313089,31.7626953 171.913669,31.8754872 172.423437,32.1010742 C172.933206,32.3266613 173.352147,32.6372051 173.680273,33.0327148 C174.0084,33.4282246 174.253026,33.8984348 174.41416,34.4433594 C174.575294,34.988284 174.655859,35.5800749 174.655859,36.21875 C174.655859,36.2832034 174.654394,36.3579097 174.651465,36.4428711 C174.648535,36.5278325 174.644141,36.6054684 174.638281,36.6757812 L167.721289,36.6757812 L167.747656,37.0712891 C167.782813,37.5107444 167.872167,37.9121076 168.015723,38.2753906 C168.159278,38.6386737 168.35703,38.9521471 168.608984,39.2158203 C168.860939,39.4794935 169.167088,39.6831048 169.527441,39.8266602 C169.887795,39.9702156 170.299412,40.0419922 170.762305,40.0419922 C171.383401,40.0419922 171.951755,39.9335948 172.467383,39.7167969 C172.98301,39.4999989 173.445896,39.1894551 173.856055,38.7851562 L174.304297,39.9892578 Z M177.8,41 L176.349805,41 L176.349805,34.1533203 C176.349805,33.7841778 176.343945,33.4150409 176.332226,33.0458984 C176.320508,32.676756 176.308789,32.3222673 176.29707,31.9824219 L177.747265,31.9824219 L177.8,33.3447266 C178.046095,32.8466772 178.380076,32.4599623 178.801953,32.1845703 C179.22383,31.9091783 179.692575,31.7714844 180.208203,31.7714844 C180.548048,31.7714844 180.864451,31.8066403 181.157422,31.8769531 L181.175,33.2392578 C181.051952,33.1748044 180.90254,33.1235353 180.726758,33.0854492 C180.550976,33.0473631 180.363477,33.0283203 180.164258,33.0283203 C179.812693,33.0283203 179.490431,33.0971673 179.197461,33.2348633 C178.904491,33.3725593 178.65547,33.5703112 178.45039,33.828125 C178.245311,34.0859388 178.085645,34.3994122 177.971387,34.7685547 C177.857128,35.1376972 177.8,35.550779 177.8,36.0078125 L177.8,41 Z" id="Designer" fill="#288BDF"></path>
            </g>
        </g>
    </g>
</svg>