<?xml version="1.0" encoding="UTF-8" standalone="no"?>
<svg width="16px" height="17px" viewBox="0 0 16 17" version="1.1" xmlns="http://www.w3.org/2000/svg" xmlns:xlink="http://www.w3.org/1999/xlink">
    <!-- Generator: Sketch 3.6.1 (26313) - http://www.bohemiancoding.com/sketch -->
    <title>Group 3</title>
    <desc>Created with Sketch.</desc>
    <defs></defs>
    <g id="home" stroke="none" stroke-width="1" fill="none" fill-rule="evenodd">
        <g id="Proyectos-HD-" transform="translate(-656.000000, -827.000000)" fill="#FFFFFF">
            <g id="Group-3" transform="translate(656.000000, 827.000000)">
                <g id="1458524270_icon-111-search">
                    <g id="Group">
                        <g id="Page-1">
                            <g id="icon-111-search">
                                <path d="M10.3124546,11.8572052 C9.24499242,12.6183939 7.93887933,13.0661157 6.52827173,13.0661157 C2.92280663,13.0661157 0,10.1411662 0,6.53305785 C0,2.92494945 2.92280663,0 6.52827173,0 C10.1337368,0 13.0565435,2.92494945 13.0565435,6.53305785 C13.0565435,8.33711205 12.3258418,9.97037651 11.144457,11.1526274 L15.7506257,15.7621731 C15.9618763,15.9735785 15.9567415,16.3125517 15.7446553,16.5247934 C15.5310905,16.7385148 15.1913825,16.73971 14.9825937,16.5307681 L10.3124546,11.8572052 L10.3124546,11.8572052 L10.3124546,11.8572052 Z M6.52827173,12.2975207 C9.70956444,12.2975207 12.2885115,9.71668289 12.2885115,6.53305785 C12.2885115,3.34943279 9.70956444,0.768595041 6.52827173,0.768595041 C3.34697902,0.768595041 0.768031968,3.34943279 0.768031968,6.53305785 C0.768031968,9.71668289 3.34697902,12.2975207 6.52827173,12.2975207 L6.52827173,12.2975207 L6.52827173,12.2975207 Z" id="search"></path>
                            </g>
                        </g>
                    </g>
                </g>
                <g id="Group-2" transform="translate(3.000000, 3.000000)">
                    <rect id="Rectangle-31" x="3" y="0" width="1" height="7"></rect>
                    <rect id="Rectangle-31-Copy" transform="translate(3.524902, 3.453857) rotate(-270.000000) translate(-3.524902, -3.453857) " x="3.02490234" y="-0.0461425781" width="1" height="7"></rect>
                </g>
            </g>
        </g>
    </g>
</svg>